<svg width="512" height="512" viewBox="0 0 512 512" fill="none" xmlns="http://www.w3.org/2000/svg">
<path d="M315.733 25.6001H452.266C459.056 25.6001 465.567 28.2972 470.368 33.0982C475.169 37.8991 477.866 44.4106 477.866 51.2001V477.867C477.866 484.656 475.169 491.168 470.368 495.969C465.567 500.77 459.056 503.467 452.266 503.467H59.7328C52.9433 503.467 46.4318 500.77 41.6309 495.969C36.8299 491.168 34.1328 484.656 34.1328 477.867V51.2001C34.1328 44.4106 36.8299 37.8991 41.6309 33.0982C46.4318 28.2972 52.9433 25.6001 59.7328 25.6001H315.733Z" fill="#DFEDEF"/>
<path d="M295.117 380.715L213.138 305.041C210.867 302.946 207.89 301.783 204.801 301.783C201.711 301.783 198.735 302.946 196.463 305.041L114.484 380.715C112.73 382.336 110.541 383.412 108.185 383.808C105.829 384.205 103.409 383.906 101.221 382.947C99.0326 381.989 97.1714 380.413 95.8652 378.413C94.5591 376.413 93.8647 374.075 93.8672 371.686V25.5999C93.8672 21.0735 95.6653 16.7325 98.8659 13.5319C102.067 10.3313 106.407 8.5332 110.934 8.5332H298.667C303.194 8.5332 307.535 10.3313 310.735 13.5319C313.936 16.7325 315.734 21.0735 315.734 25.5999V371.686C315.736 374.075 315.042 376.413 313.736 378.413C312.43 380.413 310.568 381.989 308.38 382.947C306.192 383.906 303.772 384.205 301.416 383.808C299.06 383.412 296.871 382.336 295.117 380.715Z" fill="#F74850"/>
</svg>
