<svg width="512" height="512" viewBox="0 0 512 512" fill="none" xmlns="http://www.w3.org/2000/svg">
<path d="M256.002 503.467C392.674 503.467 503.469 392.672 503.469 256C503.469 119.328 392.674 8.5332 256.002 8.5332C119.33 8.5332 8.53516 119.328 8.53516 256C8.53516 392.672 119.33 503.467 256.002 503.467Z" fill="#64DAF9"/>
<path d="M307.202 13.8241V25.4295C307.203 30.1696 305.452 34.7427 302.286 38.2707C299.12 41.7987 294.763 44.0329 290.05 44.5441L251.821 48.8108C249.129 49.1131 246.403 48.8444 243.822 48.0222C241.241 47.1999 238.862 45.8426 236.841 44.0389C234.82 42.2351 233.202 40.0254 232.092 37.5541C230.983 35.0827 230.407 32.4051 230.402 29.6961V9.81346C238.909 8.9572 247.453 8.52999 256.002 8.53346C273.207 8.50881 290.367 10.282 307.202 13.8241Z" fill="#49B749"/>
<path d="M192.598 83.3709L130.646 145.408C125.345 150.634 118.207 153.575 110.763 153.6H90.8805C87.3178 153.586 83.8185 154.542 80.7578 156.365C77.6971 158.189 75.1905 160.811 73.5066 163.951C71.8228 167.09 71.0253 170.629 71.1997 174.187C71.3741 177.746 72.5137 181.19 74.4965 184.15L80.7258 193.451C83.0276 196.874 83.9722 201.032 83.3755 205.113C82.7787 209.195 80.6833 212.908 77.4978 215.529C74.3122 218.15 70.2649 219.491 66.1447 219.29C62.0244 219.089 58.1267 217.361 55.2111 214.443L20.4805 179.712C32.616 142.368 53.4509 108.441 81.2687 80.7271C109.086 53.0132 143.091 32.3054 180.48 20.3096L197.12 49.6642C200.189 54.9948 201.41 61.1905 200.592 67.2868C199.774 73.3831 196.963 79.0379 192.598 83.3709Z" fill="#49B749"/>
<path d="M230.4 269.824V301.739C230.41 305.337 229.623 308.892 228.096 312.15L174.848 426.155C173.351 429.381 170.798 432 167.61 433.578C164.422 435.155 160.792 435.598 157.318 434.831C153.845 434.065 150.738 432.136 148.51 429.364C146.282 426.591 145.067 423.141 145.067 419.584V351.488C145.069 348.272 144.437 345.086 143.207 342.113C141.977 339.141 140.174 336.44 137.899 334.166L118.102 314.368C115.827 312.094 114.023 309.393 112.793 306.421C111.563 303.448 110.931 300.262 110.934 297.046V253.44C110.952 248.537 112.431 243.751 115.182 239.693C117.933 235.635 121.831 232.489 126.379 230.656L143.958 223.659C147.002 222.425 150.265 221.819 153.55 221.878C156.835 221.937 160.074 222.658 163.072 224L215.808 247.467C220.143 249.381 223.83 252.513 226.42 256.482C229.01 260.45 230.393 265.085 230.4 269.824Z" fill="#49B749"/>
<path d="M459.776 198.998C465.933 208.264 469.254 219.126 469.329 230.251C469.405 241.377 466.233 252.283 460.202 261.632L380.33 384.939C378.39 387.935 375.533 390.223 372.186 391.464C368.839 392.704 365.18 392.83 361.756 391.823C358.331 390.816 355.324 388.729 353.182 385.874C351.039 383.019 349.876 379.548 349.866 375.979V273.067C349.866 266.277 347.169 259.766 342.368 254.965C337.567 250.164 331.056 247.467 324.266 247.467C310.687 247.467 297.664 242.073 288.063 232.471C278.461 222.869 273.066 209.846 273.066 196.267C273.066 182.688 278.461 169.665 288.063 160.063C297.664 150.461 310.687 145.067 324.266 145.067H363.434C365.814 145.061 368.139 144.351 370.117 143.027C372.094 141.703 373.636 139.823 374.548 137.625C375.46 135.427 375.702 133.008 375.243 130.673C374.783 128.338 373.644 126.191 371.968 124.502L336.384 88.9176C332.85 85.4032 330.518 80.8614 329.721 75.9416C328.924 71.0218 329.703 65.9759 331.946 61.5256L349.269 26.7949C409.106 51.1335 457.062 97.8945 482.901 157.099L461.824 178.176C459.133 180.878 457.459 184.427 457.086 188.222C456.713 192.016 457.663 195.823 459.776 198.998Z" fill="#49B749"/>
</svg>
