<svg xmlns="http://www.w3.org/2000/svg" xmlns:xlink="http://www.w3.org/1999/xlink" width="35px" height="35px" viewBox="0 0 35 35">
      <defs>
        <filter id="alpha" filterUnits="objectBoundingBox" x="0%" y="0%" width="100%" height="100%">
          <feColorMatrix type="matrix" in="SourceGraphic" values="0 0 0 0 1 0 0 0 0 1 0 0 0 0 1 0 0 0 1 0"></feColorMatrix>
        </filter>
        <mask id="mask0">
          <g filter="url(#alpha)">
            <rect x="0" y="0" width="35" height="35" style="fill:rgb(0%,0%,0%);fill-opacity:0.996078;stroke:none;"></rect>
          </g>
        </mask>
        <clipPath id="clip1">
          <rect x="0" y="0" width="35" height="35"></rect>
        </clipPath>
        <g id="surface5" clip-path="url(#clip1)">
          <path style=" stroke:none;fill-rule:evenodd;fill:rgb(23.137255%,34.901961%,59.607843%);fill-opacity:1;" d="M 15.960938 -0.0351562 C 16.964844 -0.0351562 17.96875 -0.0351562 18.96875 -0.0351562 C 25.828125 0.820312 30.714844 4.375 33.632812 10.628906 C 34.335938 12.351562 34.78125 14.128906 34.964844 15.960938 C 34.964844 16.964844 34.964844 17.96875 34.964844 18.96875 C 34.113281 25.828125 30.558594 30.714844 24.300781 33.632812 C 22.578125 34.335938 20.800781 34.78125 18.96875 34.964844 C 17.96875 34.964844 16.964844 34.964844 15.960938 34.964844 C 9.105469 34.113281 4.21875 30.558594 1.296875 24.300781 C 0.59375 22.578125 0.152344 20.800781 -0.0351562 18.96875 C -0.0351562 17.96875 -0.0351562 16.964844 -0.0351562 15.960938 C 0.820312 9.105469 4.375 4.21875 10.628906 1.296875 C 12.351562 0.59375 14.128906 0.152344 15.960938 -0.0351562 Z M 15.960938 -0.0351562 "></path>
        </g>
      </defs>
      <g id="surface1">
        <use xlink:href="#surface5" mask="url(#mask0)"></use>
        <path style=" stroke:none;fill-rule:evenodd;fill:rgb(99.607843%,99.607843%,99.607843%);fill-opacity:1;" d="M 18.082031 6.800781 C 19.472656 6.800781 20.859375 6.800781 22.25 6.800781 C 22.25 8.078125 22.25 9.355469 22.25 10.628906 C 21.371094 10.605469 20.507812 10.628906 19.652344 10.699219 C 19.230469 10.710938 18.945312 10.914062 18.796875 11.3125 C 18.765625 12.246094 18.753906 13.183594 18.765625 14.117188 C 19.925781 14.117188 21.089844 14.117188 22.25 14.117188 C 22.128906 15.460938 22.015625 16.804688 21.910156 18.148438 C 20.859375 18.148438 19.8125 18.148438 18.765625 18.148438 C 18.695312 21.941406 18.671875 25.75 18.695312 29.566406 C 17.148438 29.566406 15.597656 29.566406 14.046875 29.566406 C 14.070312 25.75 14.046875 21.941406 13.980469 18.148438 C 13.25 18.148438 12.519531 18.148438 11.792969 18.148438 C 11.792969 16.804688 11.792969 15.460938 11.792969 14.117188 C 12.519531 14.117188 13.25 14.117188 13.980469 14.117188 C 13.953125 12.929688 13.988281 11.742188 14.082031 10.5625 C 14.503906 8.328125 15.835938 7.074219 18.082031 6.800781 Z M 18.082031 6.800781 "></path>
        <path style=" stroke:none;fill-rule:evenodd;fill:rgb(67.058824%,72.156863%,82.745098%);fill-opacity:1;" d="M 18.082031 6.800781 C 19.480469 6.734375 20.894531 6.710938 22.320312 6.734375 C 22.320312 8.054688 22.320312 9.375 22.320312 10.699219 C 21.429688 10.699219 20.542969 10.699219 19.652344 10.699219 C 20.507812 10.628906 21.371094 10.605469 22.25 10.628906 C 22.25 9.355469 22.25 8.078125 22.25 6.800781 C 20.859375 6.800781 19.472656 6.800781 18.082031 6.800781 Z M 18.082031 6.800781 "></path>
        <path style=" stroke:none;fill-rule:evenodd;fill:rgb(62.352941%,67.843137%,80%);fill-opacity:1;" d="M 13.980469 18.148438 C 14.046875 21.941406 14.070312 25.75 14.046875 29.566406 C 15.597656 29.566406 17.148438 29.566406 18.695312 29.566406 C 18.671875 25.75 18.695312 21.941406 18.765625 18.148438 C 18.765625 21.976562 18.765625 25.804688 18.765625 29.632812 C 17.167969 29.632812 15.574219 29.632812 13.980469 29.632812 C 13.980469 25.804688 13.980469 21.976562 13.980469 18.148438 Z M 13.980469 18.148438 "></path>
      </g>
    </svg>