<svg width="45" height="37" viewBox="0 0 38 37" fill="none" xmlns="http://www.w3.org/2000/svg">
                      <path fill-rule="evenodd" clip-rule="evenodd" d="M15.6493 2.4772C16.0819 1.1431 17.3202 0.160688 18.7278 0.034934C19.0094 0.00979185 19.047 0.00968445 19.3202 0.0333881C20.1716 0.107226 20.9085 0.437745 21.5162 1.01833C22.3998 1.86256 22.7913 3.10852 22.5491 4.30573C22.4671 4.71075 22.2528 5.22431 22.021 5.57144C21.4759 6.38741 20.6083 6.95407 19.6515 7.119C19.3607 7.16912 18.839 7.17955 18.5687 7.14065C17.0464 6.92156 15.8672 5.81608 15.5368 4.29851C15.4958 4.10998 15.4893 4.01454 15.4889 3.59719C15.4884 3.06635 15.5122 2.90021 15.6493 2.4772ZM24.0897 1.16249C24.029 1.03379 23.9793 0.926052 23.9793 0.923046C23.9793 0.920062 24.0445 0.931999 24.1242 0.949562C24.3525 0.999889 24.8018 1.15478 25.1065 1.28818C25.26 1.35538 25.5209 1.46179 25.6862 1.52465C27.5359 2.22805 29.3426 3.32316 31.0002 4.74553C32.0694 5.66304 33.1275 6.79645 33.8898 7.84068C34.3745 8.50468 35.1677 9.91343 35.6048 10.8865C37.5861 15.2972 37.866 20.1245 36.3924 24.4667C35.7441 26.3768 34.7531 28.1791 33.457 29.8054C31.9289 31.7228 30.0345 33.3511 27.721 34.7358C26.7565 35.313 25.9244 35.7006 24.9 36.0499C23.3288 36.5855 21.7129 36.8798 19.8891 36.9623C17.4896 37.0708 15.2848 36.784 13.2118 36.0937C12.1008 35.7237 11.2827 35.3469 10.2674 34.7376C8.59723 33.7354 7.27938 32.7152 5.98612 31.4234C4.77174 30.2103 3.8161 28.969 2.98585 27.5262C1.8107 25.4841 1.05536 23.1817 0.791701 20.8381C0.421654 17.5491 0.940385 14.2128 2.30757 11.0888C2.77956 10.0103 3.62475 8.49802 4.14673 7.79812C6.21008 5.03146 9.25004 2.69124 12.2527 1.55804C12.4072 1.49975 12.6524 1.39963 12.7975 1.33558C13.2424 1.13928 13.6865 0.985934 13.9243 0.946449L14.0142 0.931527L13.8985 1.18733C13.6866 1.65623 13.5349 2.17715 13.4438 2.7491C13.3963 3.04716 13.3901 3.94502 13.4336 4.20911C13.5061 4.64913 13.6003 5.0117 13.7156 5.2952C13.7507 5.38149 13.7773 5.45419 13.7747 5.45679C13.7721 5.45937 13.5719 5.54956 13.3299 5.65724C8.8567 7.6468 5.73485 11.7366 5.06436 16.4854C4.65496 19.3851 5.15636 22.3287 6.52177 25.0416C6.77652 25.5478 7.27137 26.4034 7.30336 26.393C7.313 26.3899 7.72191 25.8658 8.21209 25.2284L9.10331 24.0695L9.0891 23.9299C9.06014 23.6454 8.92388 22.9421 8.72653 22.0585C8.35156 20.3797 8.30181 20.041 8.2604 18.8843C8.21245 17.5459 8.273 16.6503 8.47897 15.6518C8.79472 14.1209 9.51229 12.7142 10.514 11.6623C10.8456 11.3141 11.4932 10.6973 11.7807 10.4558C13.0833 9.36191 14.7049 8.65066 16.6471 8.32138C16.8506 8.28688 17.3653 8.21339 17.4034 8.21339C17.4076 8.21339 17.0543 8.56847 16.6182 9.00243C15.587 10.0286 15.25 10.4203 14.7383 11.1871C14.6358 11.3406 14.4743 11.5773 14.3793 11.7131C14.047 12.1879 13.7542 12.8695 13.6228 13.4737C13.5347 13.8789 13.5132 14.0996 13.514 14.5902C13.5147 15.0801 13.5433 15.3535 13.6408 15.8033C13.6689 15.9332 13.7027 16.1264 13.7159 16.2327C13.7518 16.5224 13.8356 16.9187 13.9092 17.1464C14.0959 17.7248 14.4945 18.3091 15.0582 18.8308C15.3561 19.1065 15.6354 19.3359 15.6513 19.318C15.6863 19.2785 15.8363 18.5081 15.8946 18.0684C15.9655 17.5335 15.9769 17.3075 15.9902 16.179C16.0036 15.0385 16.0051 15.0056 16.0518 14.88C16.2274 14.4081 16.7701 13.9786 17.5395 13.7026C17.7818 13.6157 18.0496 13.5486 18.0705 13.5695C18.0936 13.5925 18.1135 14.3374 18.1155 15.2558C18.1297 21.5157 16.7436 26.9056 13.9697 31.3773C13.8645 31.5469 13.7813 31.6881 13.7849 31.6911C13.7885 31.6941 13.9847 31.7693 14.2209 31.8582C15.9743 32.5183 17.4361 32.819 18.8897 32.8186C20.337 32.8183 21.5826 32.6034 23.099 32.0922C23.4997 31.9572 24.1734 31.7069 24.1982 31.6839C24.2064 31.6763 24.1201 31.5203 24.0064 31.3373C23.3214 30.2346 22.6451 28.9123 22.1397 27.6873C20.626 24.0184 19.871 19.8651 19.88 15.2558C19.8815 14.4458 19.9043 13.5695 19.9242 13.5496C19.9442 13.5296 20.3927 13.6655 20.6389 13.7661C21.3222 14.0456 21.7662 14.42 21.9434 14.8662C21.9905 14.9847 21.9918 15.0128 22.0059 16.1575C22.0192 17.2371 22.0301 17.471 22.0912 17.9825C22.1328 18.3309 22.2525 18.978 22.3247 19.2446L22.3496 19.3365L22.514 19.2017C22.7527 19.0059 23.2977 18.4703 23.4487 18.2831C23.9276 17.6895 24.1749 17.0795 24.2802 16.2327C24.2934 16.1264 24.3273 15.9332 24.3554 15.8033C24.455 15.3438 24.4819 15.0819 24.4821 14.5687C24.4823 14.0213 24.4511 13.7545 24.3326 13.2881C24.1921 12.7354 23.9401 12.1728 23.6369 11.7346C23.543 11.5988 23.3743 11.3509 23.2621 11.1837C23.0019 10.7957 22.6632 10.3475 22.4129 10.0599C22.3051 9.93587 21.8528 9.4697 21.408 9.0239C20.8642 8.47902 20.613 8.21341 20.6413 8.21347C20.7231 8.21364 21.4271 8.32186 21.6978 8.3759C23.5851 8.75251 25.1358 9.48554 26.384 10.5912C26.8119 10.9701 27.6058 11.7665 27.8197 12.0314C28.9883 13.4781 29.5953 15.138 29.7327 17.2629C29.7598 17.682 29.7602 18.2205 29.7339 18.9621C29.6969 20.0048 29.6379 20.4009 29.2806 22.0068C29.0781 22.9169 28.9404 23.6232 28.9069 23.9234L28.8921 24.0565L29.7843 25.2176C30.2751 25.8563 30.6842 26.3806 30.6935 26.3829C30.7185 26.3889 31.0536 25.8254 31.3096 25.347C32.2456 23.5974 32.8169 21.7324 33.0066 19.8075C33.2078 17.765 32.9457 15.6544 32.254 13.7471C31.6894 12.1901 30.8855 10.7949 29.8062 9.4989C29.4643 9.08834 28.605 8.22371 28.1768 7.85936C27.0706 6.91821 25.7372 6.09481 24.4194 5.53919C24.3132 5.49438 24.2243 5.45662 24.2219 5.45527C24.2194 5.45393 24.2545 5.35523 24.2997 5.23596C24.5273 4.6359 24.617 4.06006 24.5952 3.33983C24.5767 2.72931 24.5052 2.32315 24.3132 1.73998C24.251 1.55104 24.1505 1.29116 24.0897 1.16249ZM11.8693 17.8814C11.4259 16.3654 11.4523 14.594 11.9465 12.7033C11.9878 12.5453 12.0176 12.412 12.0127 12.4071C11.9948 12.3892 11.6645 12.8039 11.5136 13.0336C10.924 13.9314 10.5029 15.2066 10.326 16.6299C10.1046 18.4114 10.2374 20.0802 10.7003 21.3331C10.851 21.7409 10.9984 22.0383 11.3596 22.6631C11.5133 22.9288 11.6611 23.1851 11.688 23.2325L11.7369 23.3187L10.312 25.8519C9.52824 27.2452 8.88663 28.3918 8.8862 28.3999C8.88509 28.4212 9.60601 29.0871 9.87349 29.3118C10.2284 29.61 11.0898 30.2593 11.1047 30.2398C11.1081 30.2353 11.1307 30.1978 11.1548 30.1565C11.179 30.1151 11.45 29.6562 11.757 29.1366C12.678 27.5781 13.0392 26.9326 13.4448 26.12C14.2502 24.5062 14.6966 23.1548 14.8123 21.9797C14.8255 21.8458 14.8331 21.734 14.8292 21.7311C14.8253 21.7283 14.7112 21.6505 14.5757 21.5583C13.2276 20.6405 12.3127 19.3975 11.8693 17.8814ZM26.3629 12.851C27.1065 13.8901 27.5897 15.4352 27.7358 17.2417C27.8444 18.585 27.7161 20.0353 27.4026 21.009C27.2087 21.6112 27.06 21.9312 26.6492 22.6309C26.5313 22.8316 26.3958 23.0683 26.3479 23.1569L26.261 23.3179L27.5358 25.5831C28.2369 26.8289 28.8792 27.9716 28.9631 28.1224L29.1156 28.3966L28.8823 28.6179C28.578 28.9066 28.283 29.1731 28.0694 29.352C27.8213 29.5599 26.9362 30.2203 26.9054 30.2205C26.8911 30.2206 26.8679 30.199 26.854 30.1724C26.8401 30.1459 26.58 29.7038 26.2761 29.1901C25.5651 27.9886 25.2851 27.5013 24.9662 26.9104C24.0636 25.238 23.526 23.8833 23.2922 22.6916C23.2377 22.4139 23.1643 21.8827 23.1636 21.7601C23.1635 21.7414 23.2701 21.654 23.4049 21.5623C24.2063 21.0171 24.8929 20.3183 25.3656 19.5669C26.3732 17.9653 26.6765 15.9419 26.2563 13.6239C26.221 13.4291 26.1485 13.0957 26.0953 12.8832C26.0421 12.6706 25.9928 12.4726 25.9858 12.443C25.9673 12.3649 26.1785 12.5934 26.3629 12.851Z" fill="#2F2E5B"></path>
                    </svg>