<svg width="45" height="45" viewBox="0 0 50 45" fill="none" xmlns="http://www.w3.org/2000/svg">
                      <path fill-rule="evenodd" clip-rule="evenodd" d="M24.546 0.124368C24.1885 0.366141 24.1136 0.59896 24.2209 1.13597C24.3157 1.61089 24.2826 1.71687 24.0788 1.59023C23.8613 1.45503 23.5128 1.49045 23.3485 1.66442C23.1338 1.89192 23.1652 2.11895 23.4634 2.49289C23.6075 2.67366 23.8387 3.04619 23.9774 3.32082L24.2293 3.82018L24.1481 4.33975C24.0685 4.84895 24.0952 5.14432 24.2208 5.14432C24.3238 5.14432 24.2902 5.30079 24.1486 5.48096C23.9761 5.70051 23.974 6.1471 24.1439 6.497C24.3472 6.91578 24.3692 7.12591 24.2561 7.56549C24.1715 7.89398 24.1659 8.03645 24.2272 8.30071C24.2997 8.61331 24.2928 8.64691 24.0798 9.02408C23.5284 9.99999 23.5189 10.0262 23.6177 10.298C23.6674 10.4347 23.7767 10.6004 23.8607 10.6661C24.0116 10.7842 24.0657 10.9345 23.9572 10.9345C23.8113 10.9345 23.2663 11.3697 23.1012 11.618C22.8372 12.0148 22.791 12.5788 23.0007 12.8422C23.1401 13.0173 23.1811 13.0303 23.4984 13.0005C23.6885 12.9827 23.9256 12.9467 24.0252 12.9206L24.2062 12.8732L24.1715 13.5029L24.1366 14.1326L24.4156 14.4625C24.569 14.6441 24.722 14.841 24.7555 14.9002C24.8076 14.9922 24.8523 14.9736 25.0634 14.7722C25.1992 14.6426 25.3879 14.4057 25.4828 14.2457C25.6487 13.9661 25.6524 13.9371 25.5773 13.4846C25.4796 12.896 25.5272 12.7815 25.8079 12.9291C25.9185 12.9874 26.1461 13.0331 26.3136 13.0308C27.2234 13.0183 27.0688 11.7494 26.0777 11.0946L25.6998 10.8449L25.9156 10.6234C26.2483 10.2818 26.2239 9.96565 25.8122 9.28497C25.4894 8.7514 25.4868 8.74211 25.524 8.29121C25.5484 7.99565 25.5273 7.70486 25.4637 7.46194C25.369 7.10019 25.3718 7.07292 25.5457 6.64007C25.7485 6.13558 25.7742 5.66907 25.6092 5.48762C25.4837 5.34953 25.4712 5.20161 25.5761 5.09719C25.673 5.00084 25.6709 4.6228 25.5713 4.20968C25.495 3.8929 25.5011 3.86274 25.741 3.38485C25.8778 3.11203 26.1028 2.73735 26.2408 2.5522C26.5701 2.11053 26.6024 2.00826 26.4848 1.78184C26.3386 1.50048 26.0286 1.42601 25.6738 1.58686C25.5788 1.62995 25.4892 1.65264 25.4745 1.63735C25.4599 1.62214 25.477 1.42783 25.5126 1.20565C25.6012 0.652688 25.5425 0.401219 25.279 0.204824C24.9438 -0.0450288 24.817 -0.0588983 24.546 0.124368ZM21.916 3.30446C21.2673 3.41716 20.5399 3.85755 20.3276 4.26603C20.1198 4.66602 20.2241 5.06278 20.6417 5.46002C21.0556 5.85382 21.6286 5.94134 21.9563 5.66079C22.2094 5.44413 22.1418 5.21279 21.7463 4.94193C21.5791 4.82754 21.4424 4.70972 21.4424 4.68023C21.4424 4.65074 21.5005 4.57426 21.5715 4.51023C21.693 4.40082 21.7141 4.40062 21.9267 4.50733C22.5093 4.79967 22.7873 5.28779 22.6692 5.81093C22.4822 6.63933 21.3784 7.70304 19.9878 8.39497C18.8313 8.97048 17.5566 9.24787 16.0587 9.25009C14.1083 9.25299 11.5709 8.60846 10.1439 7.74775C9.90199 7.60185 9.60802 7.42471 9.49071 7.35415C9.06779 7.09978 8.89026 7.08814 8.60726 7.29598C8.14929 7.63241 6.67981 9.17597 6.03099 10.0021C5.95806 10.095 5.97308 10.195 6.12206 10.6081C6.22023 10.8802 6.328 11.2013 6.36163 11.3216C6.39525 11.442 6.45465 11.6541 6.49356 11.7929C6.93088 13.3533 6.85294 14.3939 6.24587 15.0997C5.92903 15.4679 5.56356 15.6495 5.11507 15.6612C4.74675 15.6708 4.36693 15.5155 4.29352 15.3251C4.23311 15.1684 4.30381 15.1302 4.73829 15.085C5.50828 15.005 6.01685 14.5703 6.01685 13.9923C6.01685 13.1571 5.32879 12.6431 4.46138 12.8304C3.83252 12.9662 3.37543 13.3439 3.10569 13.9507C2.92248 14.3628 2.91998 15.2145 3.10096 15.566C3.43139 16.2079 3.92446 16.6341 4.9209 17.1389C5.54407 17.4547 5.58399 17.4653 6.15074 17.4653C7.01958 17.4653 7.68518 17.242 8.71382 16.6055C9.11995 16.3542 9.2324 16.3116 9.32272 16.375C9.69773 16.638 10.1757 16.7975 10.5319 16.7783L10.9022 16.7583L10.5568 16.329C10.3669 16.0928 10.2079 15.8656 10.2035 15.824C10.199 15.7824 10.1902 15.1728 10.1838 14.4692C10.1732 13.2999 10.1562 13.1335 9.98676 12.5325C9.88487 12.1709 9.77195 11.7978 9.73582 11.7033C9.60112 11.3508 9.65998 11.1724 10.1214 10.535C10.3695 10.1921 10.6147 9.89557 10.6664 9.87584C10.7181 9.85611 11.0098 9.91933 11.3147 10.0164C12.2101 10.3013 12.8928 10.4765 13.7296 10.636C14.0459 10.6964 14.3792 10.76 14.4704 10.7774L14.6361 10.8091L14.4112 10.9843C13.9728 11.3257 13.8031 12.0616 14.0511 12.5456C14.2357 12.9059 14.6158 13.173 14.9377 13.1686C15.2455 13.1644 15.5874 13.0115 15.6496 12.8503C15.7311 12.639 15.69 12.4194 15.5435 12.2837C15.387 12.1386 15.1191 12.1007 15.0489 12.2137C14.9731 12.3357 14.8798 12.2839 14.8798 12.1199C14.8798 11.9293 15.2218 11.5404 15.3895 11.5404C15.8878 11.5404 16.6227 12.074 16.762 12.5368C16.9259 13.0813 16.8226 14.0984 16.462 15.4887C16.243 16.3328 16.1832 16.5875 15.9584 17.6336C15.9265 17.7817 15.8992 18.1821 15.8976 18.5231C15.8939 19.3072 16.0445 19.7454 16.4521 20.1359C16.7829 20.4528 16.9257 20.5344 17.3884 20.6712C17.7363 20.774 17.7845 20.8577 17.6451 21.1169C17.6031 21.1949 17.5722 21.4064 17.5763 21.5869C17.5819 21.8351 17.5413 21.979 17.4099 22.1766C17.1611 22.5507 17.1331 22.8862 17.3156 23.3082C17.398 23.4991 17.507 23.6895 17.5578 23.7314C17.6265 23.7882 17.6395 23.9138 17.6088 24.2217C17.5861 24.4494 17.5406 24.6697 17.5078 24.7114C17.475 24.7531 17.3203 24.8075 17.1642 24.8324C16.24 24.9795 15.847 26.0058 16.0625 27.71C16.1854 28.6831 16.2577 29.1199 16.3948 29.7189C16.8502 31.7078 16.9233 32.1659 16.8627 32.6477C16.8075 33.0854 16.6885 33.3609 16.426 33.6585C16.1468 33.975 15.901 34.0952 15.5337 34.0952C15.2879 34.0952 15.2134 34.0646 15.1223 33.9262C15.0373 33.7972 15.0281 33.7256 15.0831 33.6232C15.1691 33.4633 15.2596 33.4537 15.3969 33.5903C15.5949 33.7873 15.9888 33.673 16.0982 33.3867C16.1779 33.1779 16.0672 32.8555 15.8726 32.7298C15.1852 32.2859 13.9975 32.9053 14.0009 33.7059C14.0033 34.2601 14.8457 35.1731 15.3534 35.1717C15.6281 35.1709 16.0574 35.0497 16.5373 34.8374C17.3853 34.4623 17.5993 34.4097 18.2659 34.4127C18.7007 34.4147 18.9917 34.4611 19.4375 34.5993C19.9467 34.7572 20.0945 34.7764 20.4826 34.735C21.3473 34.6429 21.7123 34.3075 21.7127 33.6044C21.7131 32.9624 21.3224 32.4041 20.8047 32.3075C20.5722 32.2641 20.2897 32.3846 20.1062 32.6053C19.9808 32.7562 20.0028 33.1148 20.1453 33.2432C20.2859 33.3698 20.5994 33.3919 20.6688 33.2801C20.7011 33.2282 20.7327 33.2332 20.7733 33.2969C20.8768 33.4596 20.8374 33.6148 20.6481 33.7896C20.4961 33.9298 20.3955 33.9606 20.0887 33.9606C19.609 33.9606 19.2864 33.7545 19.0647 33.3066C18.9229 33.0199 18.9058 32.895 18.9104 32.1764C18.9141 31.5786 18.9549 31.2108 19.067 30.7625C19.1503 30.4292 19.2446 30.0505 19.2764 29.9209C19.3084 29.7913 19.4266 29.3195 19.5394 28.8725C20.0332 26.9135 19.8268 25.7203 18.8821 25.0733C18.5518 24.8471 18.538 24.825 18.5356 24.521C18.5343 24.3468 18.5004 24.1329 18.4604 24.0455C18.3978 23.9086 18.4166 23.8557 18.5957 23.6649C18.7102 23.5429 18.8038 23.3916 18.8038 23.3285C18.8038 23.2655 18.8495 23.1551 18.9053 23.0832C19.0049 22.955 19.0095 22.9555 19.1435 23.1131C19.2906 23.286 19.2861 23.4034 19.1047 24.1269C19.0195 24.4667 19.0228 24.5108 19.1501 24.7328C19.2256 24.8645 19.3992 25.0584 19.536 25.1635C19.7437 25.323 19.8296 25.3486 20.0554 25.3184C20.4559 25.2648 20.7046 25.1174 21.253 24.6086C22.054 23.8656 22.3298 23.7957 22.9796 24.1711C23.3122 24.3633 23.5403 24.3378 23.7391 24.0864C23.9523 23.8166 23.9705 23.5662 23.8117 23.0912L23.6669 22.6582L23.8018 22.2235C23.9433 21.7677 23.9308 21.5538 23.7508 21.3472C23.5372 21.1021 23.4341 21.0927 22.8919 21.2688C22.0219 21.5515 21.8457 21.4979 21.1537 20.7415C20.7172 20.2644 20.6018 20.1765 20.3152 20.1034C19.8931 19.9958 19.5747 20.1113 19.2984 20.4725C19.1154 20.7117 19.1082 20.7499 19.1082 21.5001C19.1082 22.2288 19.0995 22.2803 18.9729 22.2958C18.8985 22.3049 18.7353 22.2272 18.6103 22.1231L18.383 21.934L18.462 21.5554C18.5286 21.236 18.5245 21.1449 18.4356 20.9739C18.3776 20.8623 18.3302 20.7558 18.3302 20.7371C18.3302 20.7186 18.4642 20.6444 18.6278 20.5723C19.0535 20.3849 19.4394 19.9722 19.6079 19.524C19.891 18.7711 19.8066 17.9068 19.2132 15.4795C18.8698 14.0753 18.8038 13.6984 18.8038 13.1432C18.8038 12.5844 18.9709 12.1878 19.3498 11.8471C19.6548 11.573 19.8058 11.5243 20.2629 11.5531C20.5744 11.5727 20.5982 11.587 20.6189 11.7675C20.6517 12.0536 20.5306 12.1357 20.3395 11.957C19.9311 11.5752 19.3475 12.0517 19.6148 12.5487C19.6515 12.6171 19.7908 12.7401 19.9241 12.8222C20.3515 13.0849 21.0196 12.8835 21.41 12.3741C21.6708 12.034 21.7185 11.4526 21.5151 11.0926C21.1209 10.3945 20.2117 10.2274 19.0888 10.6465C18.839 10.7398 18.5129 10.8614 18.364 10.9167C17.9721 11.0626 17.383 11.1986 17.1319 11.2014C16.8929 11.2041 16.1652 10.9561 16.1652 10.872C16.1652 10.843 16.4118 10.7988 16.7131 10.7737C17.2721 10.7273 17.7459 10.6489 18.2287 10.5228C18.3776 10.4839 18.6211 10.4202 18.77 10.3813C19.1613 10.279 19.7216 10.0765 20.1375 9.88722C20.3364 9.79666 20.511 9.7226 20.5254 9.7226C20.6061 9.7226 21.6696 9.0537 22.0016 8.79408C22.7684 8.19467 23.372 7.29604 23.5743 6.45256C23.8414 5.33991 23.4679 4.08876 22.7063 3.54448C22.3925 3.32021 22.186 3.25746 21.916 3.30446ZM27.3623 3.31038C26.9103 3.41804 26.3275 4.0829 26.1409 4.70366C25.7764 5.91596 26.0786 7.10908 27.0368 8.24025C27.2118 8.44694 28.0149 9.08669 28.2979 9.24484C28.4296 9.3185 28.6535 9.44918 28.7955 9.53536C29.0478 9.68846 29.1448 9.73633 29.6287 9.94626C30.6351 10.383 32.1637 10.7481 33.2821 10.8189L33.5866 10.8382L33.2483 11.0042C32.9791 11.1363 32.8134 11.1687 32.4364 11.1627C31.9647 11.1553 31.688 11.078 30.5421 10.6338C29.9527 10.4054 29.1248 10.3632 28.7492 10.5427C28.2814 10.7662 28.005 11.1687 28.005 11.6264C28.005 12.2341 28.5219 12.8296 29.1315 12.9241C29.4819 12.9784 29.6343 12.9314 29.8959 12.6882C30.1491 12.4528 30.173 12.1498 29.9542 11.947C29.7637 11.7704 29.5086 11.7721 29.3167 11.9515C29.1325 12.1237 29.0198 12.07 29.0198 11.8098C29.0198 11.5641 29.1008 11.5163 29.5009 11.5253C29.8813 11.5339 30.1253 11.6485 30.4175 11.9555C30.9774 12.5437 30.9858 13.3385 30.4546 15.4455C30.3472 15.8713 30.2216 16.4015 30.1754 16.6237C30.1291 16.8459 30.0558 17.164 30.0123 17.3306C29.9688 17.4973 29.9332 18.0123 29.9332 18.4752C29.9332 19.225 29.9507 19.3522 30.0938 19.6415C30.3339 20.1267 30.9116 20.6297 31.2291 20.6297C31.3374 20.6297 31.3504 20.842 31.2482 20.9436C31.1617 21.0297 31.1491 21.3042 31.2141 21.6831C31.2593 21.9465 31.2485 21.9723 31.0237 22.1431C30.5969 22.467 30.5421 22.3931 30.5421 21.494C30.5421 20.7221 30.5392 20.7072 30.3364 20.4573C30.0629 20.1202 29.6952 19.9897 29.3141 20.0948C29.0186 20.1762 28.7523 20.3992 28.3167 20.9297C28.0464 21.2591 27.7349 21.4376 27.4308 21.4376C27.3359 21.4376 27.0414 21.3622 26.7765 21.2701C26.2057 21.0717 26.015 21.1197 25.823 21.5104C25.7086 21.7431 25.7094 21.7662 25.8461 22.1807C25.9917 22.622 25.9821 22.7559 25.7653 23.3091C25.6715 23.5484 25.693 23.7405 25.8403 23.9809C26.0612 24.3415 26.2708 24.3771 26.7435 24.1346C27.3864 23.8046 27.5823 23.8556 28.3242 24.5467C28.8505 25.0368 29.3724 25.3426 29.6831 25.3426C29.9521 25.3426 30.4935 24.9132 30.5635 24.6442C30.5989 24.5084 30.576 24.2368 30.498 23.8636C30.39 23.3478 30.3883 23.2758 30.4813 23.1345C30.6149 22.9317 30.7262 22.973 30.8212 23.2605C30.863 23.3874 30.9773 23.5784 31.0751 23.685C31.2383 23.8628 31.247 23.9009 31.181 24.1451C31.1413 24.2915 31.127 24.4933 31.1492 24.5936C31.1849 24.756 31.1476 24.805 30.8065 25.0424C30.314 25.3854 29.9903 25.8974 29.8914 26.4904C29.7638 27.2557 29.8785 28.0136 30.4465 30.1565C30.7092 31.1473 30.7325 31.304 30.7372 32.1091C30.7417 32.8992 30.7266 33.0158 30.5821 33.308C30.3595 33.7581 30.041 33.9612 29.5623 33.9583C29.1258 33.9557 28.9037 33.8132 28.8716 33.5154C28.8513 33.3268 28.8589 33.3216 29.1237 33.3422C29.4831 33.3701 29.6464 33.2037 29.6163 32.8403C29.5976 32.6147 29.5585 32.5621 29.307 32.4245C28.9667 32.2382 28.7175 32.2667 28.4063 32.5272C28.0956 32.7874 27.916 33.1913 27.9153 33.6315C27.9143 34.3014 28.3213 34.6529 29.1926 34.7344C29.5789 34.7704 29.7409 34.7519 30.1023 34.6299C30.652 34.4445 31.6607 34.3811 32.1928 34.4986C32.4013 34.5446 32.7696 34.6722 33.0115 34.7823C34.0617 35.2602 34.3782 35.2801 34.8838 34.9003C35.4168 34.4997 35.614 34.169 35.614 33.6754C35.614 33.2887 35.6043 33.267 35.3053 32.9859C34.8982 32.603 34.3987 32.4803 33.9596 32.6551C33.3308 32.9055 33.3974 33.6912 34.0475 33.6912C34.1384 33.6912 34.2506 33.6458 34.297 33.5903C34.4102 33.4545 34.4811 33.4631 34.5673 33.6232C34.6223 33.7256 34.613 33.7972 34.528 33.9262C34.4369 34.0646 34.3624 34.0952 34.1167 34.0952C33.6184 34.0952 33.2453 33.818 32.9388 33.22C32.6691 32.6938 32.7531 31.6747 33.2106 29.9209C33.2444 29.7913 33.3042 29.5186 33.3434 29.315C33.3827 29.1113 33.4473 28.778 33.4869 28.5743C33.6309 27.8347 33.6896 26.8622 33.6223 26.3338C33.5074 25.4318 33.1276 24.9345 32.4744 24.8305C32.3247 24.8067 32.1754 24.7531 32.1425 24.7114C32.1097 24.6697 32.0643 24.4494 32.0415 24.2217C32.0108 23.9138 32.0239 23.7882 32.0925 23.7314C32.1433 23.6895 32.2523 23.4991 32.3348 23.3082C32.5187 22.8828 32.4891 22.5505 32.2329 22.1653C32.1113 21.9824 32.0626 21.8359 32.0848 21.72C32.1031 21.625 32.0755 21.3848 32.0235 21.1861C31.9716 20.9876 31.929 20.8156 31.929 20.8039C31.929 20.7923 32.098 20.7299 32.3045 20.6652C32.9288 20.4698 33.2837 20.1877 33.535 19.6871C33.7403 19.2781 33.7547 19.2037 33.7552 18.5506C33.7557 17.875 33.6132 17.0446 33.3032 15.9167C33.0344 14.9388 32.8085 13.7289 32.809 13.2692C32.8095 12.6382 32.9135 12.3571 33.2757 12.0073C33.8665 11.437 34.4499 11.4112 34.7185 11.9437C34.8435 12.1914 34.7781 12.3828 34.6217 12.2272C34.4861 12.0922 34.247 12.1364 34.0989 12.3238C33.8634 12.6217 33.941 12.9477 34.2775 13.074C34.7124 13.2375 34.8813 13.2267 35.1726 13.0167C35.5613 12.7365 35.7172 12.4561 35.7175 12.0368C35.7178 11.5864 35.577 11.2647 35.2691 11.0121C34.9878 10.7813 34.9815 10.7864 35.6501 10.7009C36.1108 10.642 37.7834 10.213 38.4285 9.98841C38.6356 9.9163 38.8545 9.85725 38.9149 9.85725C38.9753 9.85725 39.2428 10.1447 39.5093 10.496C39.9679 11.1005 39.992 11.1501 39.9606 11.4217C39.9423 11.5796 39.8955 11.8148 39.8565 11.9444C39.478 13.2043 39.4887 13.1294 39.5011 14.4507C39.5141 15.828 39.5157 15.8209 39.0907 16.3301C38.9472 16.5018 38.8299 16.6761 38.8299 16.7172C38.8299 16.762 38.9647 16.792 39.1662 16.792C39.4779 16.792 40.0008 16.6044 40.3265 16.3757C40.4156 16.3132 40.5434 16.3621 41.0031 16.6344C42.1016 17.285 42.6442 17.4653 43.5036 17.4653C44.0677 17.4653 44.1199 17.4521 44.7042 17.161C45.7489 16.6405 46.3486 16.1039 46.6088 15.4568C46.6596 15.3303 46.696 15.0047 46.6921 14.7098C46.6866 14.2847 46.6525 14.1257 46.5095 13.858C46.1946 13.2685 45.8477 12.9849 45.282 12.854C44.5861 12.693 43.9542 12.9495 43.7291 13.4843C43.3884 14.2935 43.937 15.011 44.9585 15.0926C45.4059 15.1283 45.4431 15.1584 45.3207 15.3858C45.2216 15.5701 44.9501 15.662 44.5277 15.6544C44.0075 15.645 43.6409 15.4293 43.2371 14.8953C43.0315 14.6232 42.8893 14.0592 42.8893 13.5158C42.8893 12.7533 42.9795 12.3293 43.444 10.9093C43.7494 9.97589 43.7983 10.1392 42.9169 9.15031C42.0938 8.22671 41.177 7.32634 40.9308 7.19963C40.6819 7.07151 40.499 7.13338 39.7948 7.58394C39.3553 7.86516 39.2348 7.92791 38.5593 8.22759C37.8086 8.56066 36.2707 8.99257 35.3682 9.12372C34.5405 9.24403 33.0432 9.2746 32.3739 9.18492C30.4267 8.92403 29.0646 8.28926 27.8287 7.06659C27.3237 6.56702 27.1859 6.38517 27.0638 6.05742C26.8144 5.38811 27.0285 4.86235 27.6863 4.52847L27.9554 4.3918L28.0986 4.53864L28.2418 4.68541L28.042 4.83071C27.4857 5.23528 27.4108 5.45416 27.7444 5.70105C28.461 6.23146 29.7598 5.11039 29.35 4.31511C29.2093 4.04203 28.8526 3.72101 28.5124 3.56131C28.0709 3.35408 27.6053 3.25248 27.3623 3.31038ZM25.3942 10.1494C25.5096 10.2413 25.571 10.3388 25.5424 10.3847C25.4839 10.4791 24.2439 10.4949 24.1862 10.402C24.1653 10.3683 24.242 10.2623 24.3566 10.1664C24.6374 9.93118 25.1105 9.92344 25.3942 10.1494ZM14.5753 20.3872C14.1607 20.5177 13.8782 20.6821 13.5484 20.9846C13.201 21.3032 13.0529 21.6073 13.0533 22.0013C13.0537 22.3591 13.2353 22.6511 13.6425 22.9484C14.2035 23.3579 14.5459 23.2609 15.3743 22.4582C15.7504 22.0936 15.7715 22.0828 15.8648 22.2079C16.1422 22.5799 15.762 23.2184 15.0988 23.4941C14.4002 23.7846 13.7716 23.6728 12.5111 23.0337C12.0464 22.798 11.6052 22.5869 11.5308 22.5645C9.78751 22.0408 9.27847 21.9566 7.84356 21.955C6.55296 21.9535 5.9906 22.0494 5.06967 22.4279C4.53201 22.6489 3.68469 23.1743 3.4161 23.4533C3.18492 23.6934 3.10305 23.708 2.99061 23.5289C2.84116 23.2907 2.15675 23.0545 1.61435 23.0539C1.11634 23.0533 0.707158 23.2288 0.401692 23.5741C-0.109854 24.1525 -0.13218 24.8743 0.331059 25.858C0.636796 26.5073 0.754382 26.535 0.838342 25.9775C0.942532 25.2864 1.19238 24.9918 1.53594 25.1549C1.78261 25.272 1.82037 25.6755 1.62383 26.0933C1.33284 26.7119 1.19584 27.4182 1.16221 28.4734C1.11519 29.9501 1.29962 30.8158 1.95121 32.1764C2.64137 33.6175 4.01025 35.0099 5.44178 35.7268C5.77167 35.8921 6.86147 36.2888 7.4038 36.4411C7.55264 36.4829 7.87231 36.5791 8.11418 36.655C9.00047 36.9329 10.6133 37.0809 12.072 37.018C13.09 36.9741 15.7335 36.6453 17.4507 36.3489C18.1081 36.2354 18.6783 36.2418 20.1569 36.3794C21.0751 36.465 21.2504 36.5078 21.7986 36.7804C22.3649 37.0621 22.6891 37.4613 22.7659 37.9712C22.8479 38.5154 22.4371 39.2121 22.0343 39.2121C21.8939 39.2121 21.894 39.2104 22.048 39.0473C22.1766 38.911 22.2035 38.8085 22.2035 38.4543C22.2035 37.974 22.1044 37.7327 21.7821 37.4279C21.5879 37.2443 21.5268 37.226 21.1109 37.2262C20.7139 37.2263 20.6204 37.2513 20.4045 37.4152C20.021 37.7063 19.8636 38.0725 19.8636 38.6735C19.8636 39.4548 20.155 39.8991 20.8841 40.2296C21.5311 40.523 22.885 40.201 23.3043 39.6539C23.5308 39.3585 23.7483 38.7363 23.7928 38.2567C23.8883 37.2281 23.2622 36.1958 22.2459 35.706C21.3127 35.2562 20.73 35.1551 19.0992 35.1597C17.8673 35.1632 17.2849 35.2034 15.7255 35.3929C14.7999 35.5053 11.3421 35.4998 10.7189 35.3849C9.16907 35.0991 8.14314 34.7 6.99786 33.9372C6.08769 33.331 5.18414 32.2872 4.84776 31.4532C4.53587 30.68 4.4946 30.4576 4.4946 29.5506C4.4946 28.7215 4.5042 28.659 4.67679 28.3669C4.79864 28.1606 4.96014 28.0051 5.16446 27.8972L5.46999 27.7359L5.65828 27.8759C5.91801 28.0688 5.99216 28.3683 5.89473 28.8306C5.85137 29.0364 5.83053 29.2193 5.84839 29.2371C5.86625 29.2548 6.00907 29.2273 6.16576 29.1759C6.54416 29.0516 7.10801 28.4834 7.38167 27.9506C7.56238 27.5988 7.5981 27.4525 7.60203 27.0477C7.60588 26.6569 7.57957 26.5282 7.46435 26.3744C7.24589 26.0826 6.93541 25.9362 6.4535 25.8977C6.05785 25.8661 6.01685 25.8488 6.01685 25.7131C6.01685 25.5309 6.29607 25.1092 6.58333 24.8576C7.10537 24.4004 8.3911 23.9062 9.43036 23.7635C9.91714 23.6967 10.1878 23.6964 10.7528 23.7623C11.5694 23.8576 12.0323 24.0054 13.1207 24.5183L13.8988 24.8851L14.4454 24.845C15.6138 24.7594 16.225 24.3913 16.632 23.5279C16.7881 23.1965 16.808 23.0709 16.808 22.4139C16.808 21.56 16.7329 21.3463 16.2648 20.8669C16.0436 20.6405 15.8719 20.54 15.5228 20.4327C15.0042 20.2733 14.9461 20.2705 14.5753 20.3872ZM34.1916 20.4141C33.2553 20.7276 32.8085 21.3611 32.8085 22.3751C32.8085 23.0162 32.9179 23.3952 33.2438 23.8839C33.5586 24.3559 34.0174 24.6462 34.6627 24.7818C35.3345 24.923 35.7853 24.8715 36.3943 24.5843C37.6735 23.9809 37.9864 23.8771 38.8541 23.7682C39.8396 23.6445 40.9751 23.8079 41.9421 24.2126C42.3737 24.3932 42.473 24.4457 42.8216 24.6769C43.352 25.0286 43.6335 25.3844 43.6335 25.7028C43.6335 25.8507 43.6013 25.8654 43.2076 25.8968C42.3883 25.9623 42.0412 26.3012 42.0472 27.0299C42.052 27.6151 42.3375 28.2168 42.8509 28.7236C43.1814 29.0499 43.7056 29.3329 43.8019 29.2371C43.8198 29.2193 43.799 29.0364 43.7556 28.8306C43.5151 27.6896 44.4702 27.3965 45.0294 28.4397C45.1348 28.6363 45.1557 28.826 45.1557 29.5843C45.1557 30.3652 45.1325 30.5643 44.9906 30.9981C44.6978 31.8933 44.3522 32.4261 43.5898 33.1577C42.5814 34.1254 41.1835 34.8853 39.8447 35.1932C38.7608 35.4425 38.3822 35.4747 36.5296 35.475C34.8042 35.4754 34.3744 35.4492 32.5259 35.2312C31.5697 35.1184 29.4134 35.136 28.783 35.2617C28.0369 35.4105 27.8712 35.4649 27.3822 35.7215C26.1824 36.3514 25.6343 37.4949 25.9342 38.7424C26.175 39.7441 26.7835 40.2224 27.9506 40.3277C28.3766 40.366 28.4968 40.3518 28.7621 40.2315C29.4956 39.899 29.7868 39.4562 29.7868 38.6735C29.7868 37.6518 29.2141 37.0874 28.3138 37.2218C28.0817 37.2564 27.9607 37.3257 27.7747 37.5306C27.5059 37.8267 27.4346 38.0247 27.4318 38.4827C27.4305 38.7063 27.4744 38.8568 27.5842 39.0045L27.7384 39.2121H27.5943C27.3811 39.2121 27.0139 38.8094 26.9239 38.4767C26.7412 37.8018 27.0881 37.1602 27.8366 36.7883C28.0975 36.6587 28.4933 36.5163 28.7161 36.4719C29.6737 36.2809 31.5053 36.2331 32.4026 36.3757C32.7189 36.426 33.1299 36.4914 33.316 36.5212C35.7343 36.9083 36.7309 37.0055 38.2887 37.0059C39.8852 37.0064 40.769 36.9121 41.5361 36.6596C41.7408 36.5922 42.03 36.5031 42.1789 36.4617C43.4524 36.1069 44.1074 35.8259 44.9528 35.2719C46.4739 34.2748 47.5578 32.8772 48.1184 31.1897C48.4434 30.2114 48.5047 29.8154 48.5047 28.6932C48.5047 27.5958 48.3498 26.7177 48.0525 26.1288C47.8278 25.6838 47.8536 25.2787 48.1144 25.1549C48.4489 24.9961 48.7232 25.2837 48.8164 25.891C48.8708 26.2449 48.9706 26.4552 49.0468 26.3766C49.2001 26.2187 49.5781 25.3269 49.6488 24.9569C49.7431 24.4622 49.67 24.1222 49.3754 23.6865C49.1333 23.3284 48.9519 23.2158 48.4511 23.1129C47.7932 22.9777 46.78 23.2303 46.6523 23.5615C46.5956 23.7086 46.4502 23.6799 46.2669 23.4853C45.8378 23.0296 44.7989 22.4416 44.0394 22.2244C43.1833 21.9796 42.9018 21.9453 41.7729 21.9481C40.0152 21.9525 38.7444 22.2499 37.1723 23.0247C35.8435 23.6796 35.4961 23.7556 34.7651 23.5515C34.3164 23.4262 33.955 23.1553 33.7984 22.8269C33.6629 22.5427 33.659 22.3781 33.7839 22.2082C33.8751 22.0841 33.9018 22.0992 34.342 22.5218C35.118 23.2668 35.4538 23.3527 36.0078 22.9484C36.4151 22.6511 36.5967 22.3591 36.597 22.0013C36.5975 21.4193 36.2037 20.9114 35.4751 20.5544C34.9589 20.3015 34.6339 20.266 34.1916 20.4141ZM24.4948 21.9514C24.3091 22.0808 24.1486 22.4308 24.1486 22.7065C24.1486 23.1283 24.5462 23.7941 24.798 23.7941C24.9961 23.7941 25.2755 23.4566 25.3716 23.1016C25.5947 22.2773 25.0508 21.5638 24.4948 21.9514ZM24.5411 31.9912C24.4453 32.0931 24.3179 32.2733 24.2578 32.3918C24.136 32.6322 24.1121 33.2282 24.2165 33.4223C24.311 33.5981 24.2009 33.643 23.9696 33.523C23.6965 33.3813 23.363 33.3958 23.2014 33.5566C22.9166 33.84 23.1077 34.4218 23.6383 34.8866C23.964 35.1719 24.0236 35.3071 23.8239 35.3071C23.636 35.3071 23.5397 35.445 23.5397 35.7142C23.5397 36.0094 23.6647 36.2793 24.0607 36.8388L24.3584 37.2596H24.8172H25.276L25.5648 36.8725C25.9936 36.2976 26.1212 36.0148 26.0974 35.6914C26.0818 35.4793 26.0396 35.3929 25.9234 35.3355C25.6675 35.2093 25.6721 35.1842 26.0065 34.8914C26.3275 34.6102 26.5842 34.1549 26.5842 33.8667C26.5842 33.4891 26.1006 33.3051 25.6807 33.523C25.4494 33.643 25.3393 33.5981 25.4339 33.4223C25.5353 33.2337 25.5157 32.7104 25.3967 32.4267C25.2699 32.1247 24.9764 31.8061 24.8252 31.8061C24.7647 31.8061 24.6368 31.8894 24.5411 31.9912ZM24.6109 37.7026C24.3833 37.8213 24.2467 38.1418 24.3455 38.3255C24.5564 38.7177 24.9227 38.7946 25.1585 38.4961C25.3173 38.2952 25.333 38.1487 25.2218 37.9058C25.1179 37.6789 24.8361 37.5851 24.6109 37.7026ZM24.1552 39.1548C24.0027 39.5902 24.0881 40.3393 24.3184 40.5866C24.4704 40.75 24.6587 40.765 25.2028 40.657C25.3959 40.6187 25.5365 40.1692 25.5318 39.6051C25.5267 38.9862 25.478 38.9428 24.7896 38.9428H24.2295L24.1552 39.1548ZM24.6141 40.9631C24.5539 40.9981 24.4675 41.1161 24.422 41.2253C24.3147 41.4831 24.4437 41.774 24.706 41.8658C24.8601 41.9198 24.9191 41.9041 25.0609 41.7715C25.2959 41.5518 25.2923 41.2223 25.0528 41.0349C24.8564 40.881 24.7775 40.8681 24.6141 40.9631ZM24.4847 42.4809C24.4031 42.6124 24.2628 42.768 24.173 42.8265C23.9347 42.9819 23.7273 43.2996 23.7722 43.4404C23.7935 43.5073 23.9506 43.6294 24.1212 43.7119L24.4313 43.8618L24.3872 44.181C24.342 44.508 24.4273 44.8555 24.5757 44.9494C24.713 45.0363 25.0134 45.0074 25.1248 44.8965C25.201 44.8207 25.2311 44.6585 25.2311 44.3234V43.856L25.533 43.71C25.6991 43.6298 25.8504 43.5238 25.8694 43.4746C25.9285 43.3214 25.794 43.0788 25.5179 42.8409C25.372 42.7151 25.1986 42.5289 25.1326 42.427C24.953 42.15 24.676 42.1731 24.4847 42.4809Z" fill="#2F2E5B"></path>
                    </svg>