<svg width="45" height="45" viewBox="0 0 45 45" fill="none" xmlns="http://www.w3.org/2000/svg">
                      <path fill-rule="evenodd" clip-rule="evenodd" d="M18.8971 0.258485C12.9079 1.13122 7.11386 4.90715 3.56637 10.2495C0.814008 14.3943 -0.175283 18.1289 0.0249462 23.6184C0.132701 26.5729 0.264168 27.3766 0.991053 29.5223C2.17662 33.0229 3.88489 35.7583 6.55242 38.428C11.0273 42.9062 16.2662 45.031 22.7552 44.9999C27.3307 44.9779 31.173 43.804 35.0142 41.2541C39.1735 38.4934 42.2979 34.4013 43.9724 29.5223C44.7293 27.3167 44.8392 26.6275 44.9527 23.3698C45.0639 20.1724 45.0049 19.4019 44.4922 17.3715C41.5444 5.69413 30.8165 -1.47862 18.8971 0.258485ZM25.9497 1.28757C36.4161 2.97343 43.9548 11.8592 43.9619 22.5182C43.965 27.4613 42.5776 31.6832 39.7112 35.4516C35.9901 40.3434 31.0094 43.1452 24.7098 43.8898C18.2055 44.659 11.7866 42.2742 6.74185 37.2148C4.67817 35.1452 4.35702 34.4285 5.42482 34.2771C5.86796 34.2141 6.09058 34.3987 6.3709 35.0615C6.83802 36.1654 9.95264 39.0576 11.9283 40.2218C15.6982 42.4437 20.5722 43.4403 24.9114 42.8772C29.7856 42.2442 33.4364 40.4809 36.8635 37.1045C41.0696 32.9599 43.0116 28.3902 43.0297 22.5938C43.0379 19.9102 42.4393 16.3207 41.8523 15.5345C41.7449 15.3907 41.5683 14.9789 41.4598 14.6194C41.1974 13.7503 39.2567 10.4482 38.6186 9.78537C38.3402 9.4962 37.9315 8.99212 37.7105 8.66504C37.0034 7.61948 33.5123 5.0201 31.5218 4.05716C28.6928 2.68845 25.8946 2.04265 22.7552 2.03402C12.2856 2.00553 3.66965 9.32416 2.04779 19.6242C1.73902 21.5856 1.87312 25.3294 2.3044 26.777L2.53809 27.5614L2.93565 26.6463C3.33321 25.7315 8.29284 13.6502 9.13591 11.5426C9.3891 10.9091 9.73318 10.457 9.93156 10.4968C10.3228 10.5752 10.4414 10.8432 13.3015 18.0965C15.2598 23.0628 15.3699 23.2699 16.0191 23.1949L16.6956 23.1167V15.4038V7.69086L15.1807 7.61242C14.0692 7.5549 13.6658 7.43306 13.6658 7.15487C13.6658 6.83067 15.0403 6.77577 23.1504 6.77577C31.4054 6.77577 32.6349 6.82649 32.6349 7.16795C32.6349 7.47306 32.2837 7.56013 31.0542 7.56013H29.4734V15.3708V23.1815L32.4463 23.2945C34.8296 23.3852 35.661 23.5238 36.6403 23.9941C38.4015 24.8405 39.3007 26.1268 39.4369 27.9954C39.5826 29.9942 39.3871 30.646 38.2761 31.8665C37.0924 33.1667 35.6608 33.636 32.1815 33.8643L29.4887 34.0408L29.4152 37.3375L29.3417 40.6341L26.3778 40.7081C23.9049 40.7698 23.4139 40.7181 23.4139 40.3957C23.4139 40.1201 23.7729 39.9863 24.6653 39.9295L25.9167 39.8498V32.0061V24.1625L24.6653 24.0828C23.8109 24.0284 23.4139 23.8877 23.4139 23.6396C23.4139 23.3915 23.8109 23.2508 24.6653 23.1964L25.9167 23.1167V15.4038V7.69086L23.0845 7.6166L20.2523 7.54235V15.7871V24.0318H18.0129C16.7812 24.0318 15.7735 24.1175 15.7735 24.2224C15.7735 24.3272 16.0802 25.2096 16.4551 26.1833L17.1369 27.9536H18.798C20.0118 27.9536 20.4992 28.0566 20.607 28.3353C20.7279 28.6475 20.3604 28.7309 18.5933 28.7929C14.5461 28.9348 10.4624 28.7322 10.5744 28.3949C10.6313 28.2232 11.2863 28.049 12.04 28.0054C12.7893 27.9617 13.4024 27.844 13.4021 27.7439C13.4021 27.3946 12.3001 24.6831 12.0234 24.3513C11.8174 24.1042 10.855 24.036 8.3292 24.0898L4.91344 24.1625L3.86882 26.777C2.80287 29.4447 2.4767 30.0097 2.17583 29.7111C1.68132 29.2201 1.01029 25.2326 0.996059 22.6997C0.967605 17.6395 1.84624 14.6806 4.61099 10.5219C9.15067 3.694 17.7597 -0.0314667 25.9497 1.28757ZM6.99398 19.3334C6.17146 21.2141 5.49859 22.8641 5.49859 23.0001C5.49859 23.1413 6.79955 23.2474 8.52837 23.2474C10.4943 23.2474 11.5582 23.1496 11.5582 22.9692C11.5582 22.8163 11.2496 22.022 10.8724 21.2044C10.4954 20.3868 9.88493 18.953 9.51582 18.0183C9.14698 17.0836 8.76496 16.2279 8.66722 16.1165C8.56921 16.0051 7.81624 17.4528 6.99398 19.3334ZM29.6492 24.2062C29.5525 24.3019 29.4734 26.3143 29.4734 28.6776V32.9748L31.7078 32.8828C33.8139 32.7957 33.9907 32.7427 34.7842 31.9549C35.5757 31.1692 35.6331 30.9833 35.7467 28.8378C35.8945 26.045 35.4851 25.0632 33.9138 24.4391C32.8918 24.0333 29.9832 23.8744 29.6492 24.2062Z" fill="#2F2E5B"></path>
                    </svg>