<svg width="45" height="45" viewBox="0 0 38 45" fill="none" xmlns="http://www.w3.org/2000/svg">
                      <path fill-rule="evenodd" clip-rule="evenodd" d="M1.24826 4.14175L1 4.38991V15.4676C1 26.4104 1.00243 26.5476 1.20225 26.7474C1.39883 26.944 1.53929 26.9497 6.19654 26.9497H10.9887L11.5561 27.7326L12.1236 28.5156V29.3991C12.1236 30.5064 12.3078 31.0082 12.8617 31.4094C13.0843 31.5706 13.3278 31.7025 13.4028 31.7025C13.4779 31.7025 13.5393 31.7331 13.5393 31.7706C13.5393 31.8082 12.8559 33.4404 12.0206 35.3979C10.4801 39.008 10.4477 39.1164 10.7895 39.5143C11.1097 39.8871 11.5392 39.7449 12.5473 38.9324C13.0654 38.5148 13.4995 38.2306 13.5126 38.3004C13.5259 38.3702 13.5765 38.9248 13.6255 39.5331C13.7075 40.5548 13.735 40.6567 13.9864 40.873C14.1361 41.0016 14.3444 41.107 14.4494 41.107C14.8822 41.107 15.1449 40.6303 16.5786 37.2417L18.0215 33.8314L18.5108 33.6689C18.9604 33.5197 19.0398 33.5197 19.4908 33.6694L19.9814 33.8324L21.423 37.2421C22.8554 40.6303 23.1179 41.107 23.5506 41.107C23.6556 41.107 23.8639 41.0016 24.0136 40.873C24.265 40.6567 24.2925 40.5548 24.3745 39.5331C24.4235 38.9248 24.4741 38.3664 24.4874 38.2921C24.5015 38.2119 24.8948 38.4687 25.4553 38.9241C26.4653 39.7448 26.8899 39.8876 27.2105 39.5143C27.5523 39.1164 27.5199 39.008 25.9795 35.3979C25.1441 33.4404 24.4607 31.8082 24.4607 31.7706C24.4607 31.7331 24.5221 31.7025 24.5972 31.7025C24.6722 31.7025 24.9157 31.5706 25.1383 31.4094C25.6922 31.0082 25.8764 30.5064 25.8764 29.3991V28.5156L26.4439 27.7326L27.0113 26.9497H31.8035C36.4607 26.9497 36.6012 26.944 36.7978 26.7474C36.9976 26.5476 37 26.4104 37 15.4676V4.38991L36.7517 4.14175L36.5036 3.89349H19H1.49642L1.24826 4.14175ZM35.4831 15.4721V25.5339H31.1889H26.8947L26.7736 25.3064C26.7069 25.1812 26.4778 24.8472 26.2644 24.5641C25.8827 24.0575 25.8764 24.0348 25.8742 23.1483C25.8707 21.7686 25.5334 21.199 24.5054 20.8379C24.2583 20.751 23.8627 20.6113 23.6264 20.5275C23.2848 20.4064 23.1033 20.2408 22.7416 19.7209C21.8428 18.4289 21.2527 18.267 19.5724 18.8519L18.9818 19.0574L18.4094 18.8528C16.7614 18.2638 16.156 18.4306 15.2584 19.7209C14.7847 20.4019 14.8379 20.3684 13.4595 20.8512C12.4507 21.2045 12.1236 21.7584 12.1236 23.113C12.1236 24.0418 12.1205 24.0534 11.7356 24.5641C11.5222 24.8472 11.2931 25.1812 11.2264 25.3064L11.1053 25.5339H6.81107H2.51685V15.4721V5.41035H19H35.4831V15.4721ZM7.36179 9.03775C7.07298 9.27155 7.04102 9.87678 7.30364 10.1393C7.46817 10.3039 8.19868 10.3148 19 10.3148C29.8013 10.3148 30.5318 10.3039 30.6964 10.1393C30.959 9.87678 30.927 9.27155 30.6382 9.03775C30.413 8.85543 29.9921 8.84855 19 8.84855C8.00787 8.84855 7.58699 8.85543 7.36179 9.03775ZM7.27704 14.3734C7.16176 14.52 7.06742 14.7186 7.06742 14.8148C7.06742 14.9111 7.16176 15.1097 7.27704 15.2562L7.48657 15.5227H19H30.5134L30.723 15.2562C30.9874 14.9201 30.9874 14.7096 30.723 14.3734L30.5134 14.107H19H7.48657L7.27704 14.3734ZM17.7865 20.225C18.1954 20.364 18.7414 20.4778 19 20.4778C19.2586 20.4778 19.8046 20.364 20.2135 20.225C20.6223 20.0859 20.9926 19.9721 21.0364 19.9721C21.0802 19.9721 21.296 20.2372 21.5161 20.5611C21.9328 21.1748 22.4958 21.7297 22.8107 21.8372C22.9118 21.8717 23.2902 22.0008 23.6517 22.1242L24.309 22.3486L24.3707 23.3598C24.4429 24.5435 24.4885 24.6763 25.1061 25.4972C25.3629 25.8386 25.573 26.1868 25.573 26.2709C25.573 26.3552 25.3699 26.6942 25.1217 27.0244C24.5162 27.83 24.4426 28.0455 24.3707 29.2243L24.309 30.235L23.4807 30.5026C22.4353 30.8402 22.1874 31.0197 21.6294 31.8424C21.3814 32.2083 21.129 32.5265 21.0685 32.5498C21.0081 32.573 20.6432 32.4798 20.2575 32.3428C19.3517 32.021 18.6483 32.021 17.7425 32.3428C17.3568 32.4798 16.9928 32.5727 16.9335 32.5491C16.8743 32.5255 16.6036 32.1901 16.3319 31.8037C15.7437 30.9671 15.5673 30.841 14.5045 30.4977L13.691 30.235L13.6293 29.2243C13.5571 28.0411 13.4869 27.8369 12.8812 27.0497C12.6313 26.7251 12.427 26.3826 12.427 26.2886C12.427 26.1947 12.6371 25.8386 12.8939 25.4972C13.5115 24.6763 13.5571 24.5435 13.6293 23.3598L13.691 22.3486L14.3483 22.1242C14.7098 22.0008 15.0882 21.8717 15.1893 21.8372C15.5042 21.7297 16.0672 21.1748 16.4839 20.5611C16.704 20.2372 16.9198 19.9721 16.9636 19.9721C17.0074 19.9721 17.3777 20.0859 17.7865 20.225ZM17.8169 22.7837C14.6611 23.9099 14.4526 28.1811 17.4831 29.6188C18.0572 29.8912 18.2493 29.9306 19 29.9306C19.7522 29.9306 19.9417 29.8915 20.5169 29.6174C23.3662 28.2595 23.3781 24.2301 20.5367 22.928C19.7665 22.575 18.5782 22.512 17.8169 22.7837ZM19.99 24.3107C20.4759 24.5598 20.7587 24.8698 21.014 25.4328C21.6611 26.8603 20.5771 28.4723 18.9758 28.4637C17.1491 28.4539 16.1383 26.2948 17.3003 24.885C17.4668 24.6832 17.7693 24.4301 17.9728 24.3226C18.4769 24.0562 19.4824 24.0503 19.99 24.3107ZM15.8186 33.4795L16.3296 33.9925L15.6489 35.6031L14.9682 37.2137L14.8957 36.7686C14.7606 35.9391 14.1556 35.7 13.5269 36.2278C13.1318 36.5596 13.0779 36.7376 14.125 34.2492L14.9045 32.397L15.106 32.6818C15.2169 32.8384 15.5375 33.1974 15.8186 33.4795ZM24.7267 36.2948C24.7817 36.4679 24.7459 36.458 24.4661 36.2226C23.8449 35.6999 23.2388 35.9429 23.1043 36.7686L23.0318 37.2137L22.346 35.5957L21.6601 33.9778L22.0505 33.64C22.2653 33.4543 22.5825 33.0966 22.7555 32.8451L23.0701 32.3878L23.8666 34.241C24.3046 35.2602 24.6917 36.1844 24.7267 36.2948Z" fill="#2F2E5B" stroke="#2F2E5B" stroke-width="1.3"></path>
                    </svg>