<svg width="35" height="35" viewBox="0 0 35 35" fill="none" xmlns="http://www.w3.org/2000/svg">
      <path d="M0 17.5C0 27.165 7.83502 35 17.5 35C27.165 35 35 27.165 35 17.5C35 7.83502 27.165 0 17.5 0C7.83502 0 0 7.83502 0 17.5Z" fill="#F00073"></path>
      <path d="M17.5 10.0625C19.9062 10.0625 20.2344 10.0625 21.2188 10.0625C22.0938 10.0625 22.5312 10.2813 22.8594 10.3906C23.2969 10.6094 23.625 10.7188 23.9531 11.0469C24.2812 11.375 24.5 11.7031 24.6094 12.1406C24.7188 12.4688 24.8281 12.9063 24.9375 13.7813C24.9375 14.7656 24.9375 14.9844 24.9375 17.5C24.9375 20.0156 24.9375 20.2344 24.9375 21.2188C24.9375 22.0938 24.7188 22.5312 24.6094 22.8594C24.3906 23.2969 24.2812 23.625 23.9531 23.9531C23.625 24.2812 23.2969 24.5 22.8594 24.6094C22.5312 24.7188 22.0938 24.8281 21.2188 24.9375C20.2344 24.9375 20.0156 24.9375 17.5 24.9375C14.9844 24.9375 14.7656 24.9375 13.7813 24.9375C12.9063 24.9375 12.4688 24.7188 12.1406 24.6094C11.7031 24.3906 11.375 24.2812 11.0469 23.9531C10.7188 23.625 10.5 23.2969 10.3906 22.8594C10.2813 22.5312 10.1719 22.0938 10.0625 21.2188C10.0625 20.2344 10.0625 20.0156 10.0625 17.5C10.0625 14.9844 10.0625 14.7656 10.0625 13.7813C10.0625 12.9063 10.2813 12.4688 10.3906 12.1406C10.6094 11.7031 10.7188 11.375 11.0469 11.0469C11.375 10.7188 11.7031 10.5 12.1406 10.3906C12.4688 10.2813 12.9063 10.1719 13.7813 10.0625C14.7656 10.0625 15.0938 10.0625 17.5 10.0625ZM17.5 8.42188C14.9844 8.42188 14.7656 8.42188 13.7813 8.42188C12.7969 8.42188 12.1406 8.64063 11.5938 8.85938C11.0469 9.07813 10.5 9.40625 9.95313 9.95313C9.40625 10.5 9.1875 10.9375 8.85938 11.5938C8.64063 12.1406 8.53125 12.7969 8.42188 13.7813C8.42188 14.7656 8.42188 15.0938 8.42188 17.5C8.42188 20.0156 8.42188 20.2344 8.42188 21.2188C8.42188 22.2031 8.64063 22.8594 8.85938 23.4062C9.07813 23.9531 9.40625 24.5 9.95313 25.0469C10.5 25.5938 10.9375 25.8125 11.5938 26.1406C12.1406 26.3594 12.7969 26.4687 13.7813 26.5781C14.7656 26.5781 15.0938 26.5781 17.5 26.5781C19.9062 26.5781 20.2344 26.5781 21.2188 26.5781C22.2031 26.5781 22.8594 26.3594 23.4062 26.1406C23.9531 25.9219 24.5 25.5938 25.0469 25.0469C25.5938 24.5 25.8125 24.0625 26.1406 23.4062C26.3594 22.8594 26.4687 22.2031 26.5781 21.2188C26.5781 20.2344 26.5781 19.9062 26.5781 17.5C26.5781 15.0938 26.5781 14.7656 26.5781 13.7813C26.5781 12.7969 26.3594 12.1406 26.1406 11.5938C25.9219 11.0469 25.5938 10.5 25.0469 9.95313C24.5 9.40625 24.0625 9.1875 23.4062 8.85938C22.8594 8.64063 22.2031 8.53125 21.2188 8.42188C20.2344 8.42188 20.0156 8.42188 17.5 8.42188Z" fill="white"></path>
      <path d="M17.5 12.7969C14.875 12.7969 12.7969 14.875 12.7969 17.5C12.7969 20.125 14.875 22.2031 17.5 22.2031C20.125 22.2031 22.2031 20.125 22.2031 17.5C22.2031 14.875 20.125 12.7969 17.5 12.7969ZM17.5 20.5625C15.8594 20.5625 14.4375 19.25 14.4375 17.5C14.4375 15.8594 15.75 14.4375 17.5 14.4375C19.1406 14.4375 20.5625 15.75 20.5625 17.5C20.5625 19.1406 19.1406 20.5625 17.5 20.5625Z" fill="white"></path>
      <path d="M22.3125 13.7813C22.9166 13.7813 23.4062 13.2916 23.4062 12.6875C23.4062 12.0834 22.9166 11.5938 22.3125 11.5938C21.7084 11.5938 21.2188 12.0834 21.2188 12.6875C21.2188 13.2916 21.7084 13.7813 22.3125 13.7813Z" fill="white"></path>
    </svg>