<?xml version="1.0" encoding="utf-8"?>
<!-- Generator: Adobe Illustrator 26.1.0, SVG Export Plug-In . SVG Version: 6.00 Build 0)  -->
<svg version="1.1" id="Layer_1" xmlns="http://www.w3.org/2000/svg" xmlns:xlink="http://www.w3.org/1999/xlink" x="0px" y="0px"
     viewBox="0 0 377 64" style="enable-background:new 0 0 377 64;" xml:space="preserve">
<style type="text/css">
	.st0{fill:#FCD210;}
	.st1{fill:#893893;}
	.st2{fill:#2E2D5B;}
</style>
  <g>
	<g>
		<g>
			<g>
				<g>
					<path class="st0" d="M58.5,42.8c5.1,6.7,9.7,13.9,9.9,14.2l3.3,5.2c5.1-6.5,8.2-14.8,8.2-23.7c0-7.1-2-13.8-5.3-19.5l-6.1,9.6
						C68.2,28.9,63.6,36,58.5,42.8z"/>
          <path class="st0" d="M28.9,22.5c0-6.9,5.6-12.5,12.5-12.5c6.9,0,12.5,5.6,12.5,12.4c3.3-1.5,5.8-2.9,5.9-3l10.7-6.2
						C63.5,5.2,53.1,0,41.5,0c-11.6,0-21.9,5.1-29,13.2l10.7,6.3C24.3,20.2,26.4,21.4,28.9,22.5z"/>
          <path class="st0" d="M24.4,42.8c-5.1-6.7-9.7-13.9-9.9-14.2L8.3,19C4.9,24.7,3,31.4,3,38.5c0,8.9,3.1,17.2,8.2,23.7l3.3-5.2
						C14.7,56.6,19.3,49.5,24.4,42.8z"/>
				</g>
        <g>
					<g>
						<path class="st1" d="M63.1,25.1c0,0-13.1,7.6-21.6,7.6c-8.8,0-21.6-7.6-21.6-7.6s6.6,10.3,12.7,17.7
							c-6.1,7.4-12.7,17.7-12.7,17.7s12.8-7.6,21.6-7.6c8.4,0,21.6,7.6,21.6,7.6s-6.6-10.3-12.7-17.7C56.5,35.3,63.1,25.1,63.1,25.1
							z"/>
					</g>
          <g>
						<path class="st1" d="M41.5,28.7c3.4,0,6.1-2.8,6.1-6.1s-2.8-6.1-6.1-6.1s-6.1,2.8-6.1,6.1C35.4,26,38.1,28.7,41.5,28.7z"/>
					</g>
				</g>
			</g>
      <g>
				<g>
					<g>
						<g>
							<g>
								<path class="st2" d="M98.3,19.9c-1.3,0-3.8-0.1-5-0.3c-1.2-0.2-1.7-0.6-1.7-2V2.3c0-1.4,0.4-1.8,1.6-2
									c1.1-0.2,3.7-0.3,5-0.3c5.1,0,8.5,1.2,8.5,5.6V6c0,1.7-0.8,3.1-2,3.7c1.2,0.7,2.1,2.1,2.1,3.8v0.3
									C106.8,18.9,102.5,19.9,98.3,19.9z M101.6,6c0-1-0.6-1.7-2.7-1.7c-0.2,0-1.9,0-2.1,0v3.7h2.5c1.7,0,2.2-0.7,2.2-1.7L101.6,6
									L101.6,6z M101.7,13.5c0-1.1-0.6-1.9-2.3-1.9h-2.5v4H99c2,0,2.7-0.8,2.7-1.9V13.5z"/>
                <path class="st2" d="M125.1,19.7h-4.6c-0.3,0-0.5-0.2-0.5-0.5l-0.7-3.6h-4.6l-0.7,3.6c0,0.3-0.3,0.5-0.5,0.5h-4.5
									c-0.3,0-0.5-0.2-0.5-0.4c0,0,0-0.1,0-0.1l3.5-16c0.6-2.6,2.5-3.1,5-3.1c2.5,0,4.4,0.5,5,3.1l3.5,16c0,0,0,0.1,0,0.1
									C125.5,19.5,125.4,19.7,125.1,19.7z M117.3,4.7c0-0.2,0-0.4-0.3-0.4c-0.2,0-0.2,0.1-0.3,0.4l-1.3,6.6h3.1L117.3,4.7z"/>
                <path class="st2" d="M138.5,19.6c-0.9,0.2-2.7,0.3-4.1,0.3c-3.4,0-6.7-0.8-6.7-5.8V0.8c0-0.3,0.3-0.5,0.6-0.5h4.3
									c0.3,0,0.5,0.2,0.5,0.5v13.3c0,1,0.3,1.3,1.2,1.3h4.2c0.3,0,0.5,0.2,0.5,0.5v3.2C139.1,19.4,138.9,19.6,138.5,19.6z"/>
                <path class="st2" d="M157.3,19.7h-5.5c-0.3,0-0.4-0.2-0.6-0.5l-4.6-8.3v8.3c0,0.3-0.2,0.5-0.5,0.5h-4.3
									c-0.3,0-0.6-0.2-0.6-0.5V0.8c0-0.3,0.3-0.5,0.6-0.5h4.3c0.3,0,0.5,0.2,0.5,0.5V9l5-8.4c0.1-0.2,0.3-0.4,0.6-0.4h5
									c0.2,0,0.4,0.1,0.4,0.3c0,0.1,0,0.2-0.1,0.3l-5.7,9l5.7,9.3c0,0.1,0.1,0.2,0.1,0.3C157.6,19.6,157.5,19.7,157.3,19.7z"/>
                <path class="st2" d="M175.4,19.7h-4.6c-0.3,0-0.5-0.2-0.5-0.5l-0.7-3.6H165l-0.7,3.6c0,0.3-0.3,0.5-0.5,0.5h-4.5
									c-0.3,0-0.5-0.2-0.5-0.4c0,0,0-0.1,0-0.1l3.5-16c0.6-2.6,2.5-3.1,5-3.1s4.4,0.5,5,3.1l3.5,16c0,0,0,0.1,0,0.1
									C175.8,19.5,175.7,19.7,175.4,19.7z M167.6,4.7c0-0.2,0-0.4-0.3-0.4c-0.2,0-0.2,0.1-0.3,0.4l-1.3,6.6h3.1L167.6,4.7z"/>
                <path class="st2" d="M193.1,19.7h-3.5c-0.5,0-0.8-0.2-1.1-0.7l-5.1-8.7c-0.1-0.2-0.2-0.2-0.3-0.2c-0.1,0-0.1,0-0.1,0.2v8.9
									c0,0.3-0.2,0.5-0.5,0.5h-3.9c-0.3,0-0.6-0.2-0.6-0.5V1.2c0-0.5,0.5-1,1-1h3.4c0.5,0,0.8,0.3,1.1,0.8l5.3,9
									c0.1,0.2,0.2,0.2,0.2,0.2c0.1,0,0.1,0,0.1-0.2V0.8c0-0.3,0.2-0.5,0.5-0.5h3.9c0.3,0,0.5,0.2,0.5,0.5v17.9
									C194.1,19.2,193.7,19.7,193.1,19.7z"/>
							</g>
              <g>
								<path class="st1" d="M103.5,32.5h-5.3c-0.9,0-1.2,0.3-1.2,1.3v1.9h6.4c0.3,0,0.5,0.2,0.5,0.5v3.1c0,0.3-0.2,0.5-0.5,0.5H97
									v7.3c0,0.3-0.2,0.5-0.5,0.5h-4.3c-0.3,0-0.5-0.2-0.5-0.5V33.8c0-5,3.4-5.8,6.7-5.8c2.5,0,4.1,0.2,5.1,0.3
									c0.3,0,0.5,0.2,0.5,0.5V32C104,32.3,103.8,32.5,103.5,32.5z"/>
                <path class="st1" d="M114.9,47.8c-4.1,0-7.9-1.3-7.9-7.6V28.7c0-0.3,0.3-0.5,0.6-0.5h4.2c0.3,0,0.5,0.2,0.5,0.5v11.5
									c0,2.4,0.7,3.1,2.6,3.1c1.8,0,2.6-0.8,2.6-3.1V28.7c0-0.3,0.2-0.5,0.5-0.5h4.2c0.3,0,0.6,0.2,0.6,0.5v11.5
									C122.9,46.5,119.1,47.8,114.9,47.8z"/>
                <path class="st1" d="M141.3,47.6h-3.5c-0.5,0-0.8-0.2-1.1-0.7l-5.1-8.7c-0.1-0.2-0.2-0.2-0.3-0.2c-0.1,0-0.1,0-0.1,0.2V47
									c0,0.3-0.2,0.5-0.5,0.5h-3.9c-0.3,0-0.6-0.2-0.6-0.5V29.1c0-0.5,0.5-1,1-1h3.4c0.5,0,0.8,0.3,1.1,0.8l5.3,9
									c0.1,0.2,0.2,0.2,0.2,0.2c0.1,0,0.1,0,0.1-0.2v-9.2c0-0.3,0.2-0.5,0.5-0.5h3.9c0.3,0,0.5,0.2,0.5,0.5v17.9
									C142.3,47.1,141.8,47.6,141.3,47.6z"/>
							</g>
						</g>
					</g>
				</g>
        <g>
					<path class="st2" d="M93,63.7c-0.4-0.2-0.7-0.4-0.9-0.7c-0.2-0.3-0.3-0.7-0.3-1.1H93c0,0.3,0.1,0.6,0.4,0.8
						c0.2,0.2,0.5,0.3,0.9,0.3c0.4,0,0.7-0.1,1-0.3s0.3-0.4,0.3-0.8c0-0.2,0-0.4-0.2-0.6c-0.1-0.1-0.3-0.3-0.5-0.3
						c-0.2-0.1-0.5-0.2-0.9-0.3c-0.5-0.1-0.9-0.2-1.2-0.4c-0.3-0.1-0.5-0.3-0.8-0.6c-0.2-0.3-0.3-0.6-0.3-1.1c0-0.4,0.1-0.8,0.3-1.1
						c0.2-0.3,0.5-0.6,0.9-0.7c0.4-0.1,0.8-0.2,1.3-0.2c0.7,0,1.3,0.2,1.7,0.5c0.4,0.3,0.7,0.8,0.8,1.5h-1.3c0-0.2-0.1-0.5-0.4-0.7
						c-0.2-0.2-0.5-0.3-0.9-0.3c-0.3,0-0.6,0.1-0.8,0.2c-0.2,0.2-0.3,0.4-0.3,0.8c0,0.2,0,0.4,0.2,0.5c0.1,0.1,0.3,0.2,0.5,0.3
						c0.2,0.1,0.5,0.2,0.9,0.3c0.5,0.1,0.9,0.3,1.2,0.4c0.3,0.1,0.6,0.3,0.8,0.6c0.2,0.3,0.3,0.6,0.3,1.1c0,0.4-0.1,0.7-0.3,1.1
						c-0.2,0.3-0.5,0.6-0.9,0.8c-0.4,0.2-0.8,0.3-1.4,0.3C93.8,63.9,93.3,63.9,93,63.7z"/>
          <path class="st2" d="M100.2,56.5v7.3H99v-7.3H100.2z"/>
          <path class="st2" d="M108.6,63.9h-1.2l-3.6-5.5v5.5h-1.2v-7.3h1.2l3.6,5.4v-5.4h1.2V63.9z"/>
          <path class="st2" d="M111,58.2c0.3-0.6,0.8-1,1.4-1.3c0.6-0.3,1.2-0.5,1.9-0.5c0.8,0,1.5,0.2,2.1,0.6c0.6,0.4,1.1,0.9,1.3,1.6
						h-1.5c-0.2-0.4-0.4-0.7-0.8-0.9c-0.3-0.2-0.7-0.3-1.2-0.3c-0.5,0-0.9,0.1-1.3,0.3c-0.4,0.2-0.7,0.5-0.9,0.9
						c-0.2,0.4-0.3,0.9-0.3,1.4s0.1,1,0.3,1.4c0.2,0.4,0.5,0.7,0.9,0.9c0.4,0.2,0.8,0.3,1.3,0.3c0.4,0,0.8-0.1,1.2-0.3
						c0.3-0.2,0.6-0.5,0.8-0.9h1.5c-0.3,0.7-0.7,1.3-1.3,1.6c-0.6,0.4-1.3,0.6-2.1,0.6c-0.7,0-1.3-0.1-1.9-0.5
						c-0.6-0.3-1-0.8-1.4-1.3c-0.3-0.6-0.5-1.2-0.5-1.9C110.6,59.5,110.7,58.8,111,58.2z"/>
          <path class="st2" d="M121.1,57.5v2.1h2.5v1h-2.5v2.2h2.9v1h-4.1v-7.3h4v1L121.1,57.5L121.1,57.5z"/>
          <path class="st2" d="M129.7,62.2c0.7-0.6,1.2-1,1.6-1.4c0.4-0.4,0.7-0.7,1-1.2c0.3-0.4,0.4-0.8,0.4-1.2c0-0.3,0-0.5-0.2-0.7
						c-0.1-0.1-0.3-0.2-0.6-0.2c-0.3,0-0.5,0.1-0.6,0.3c-0.1,0.2-0.2,0.5-0.2,0.8h-1.7c0-0.6,0.1-1.1,0.4-1.5c0.2-0.4,0.6-0.7,1-0.9
						c0.4-0.2,0.8-0.3,1.3-0.3c0.8,0,1.5,0.2,1.9,0.6s0.6,1,0.6,1.7s-0.2,1.5-0.8,2.1c-0.5,0.6-1.2,1.3-1.9,1.9h2.9v1.5h-5.3v-1.4
						C129.6,62.2,129.7,62.1,129.7,62.2z"/>
          <path class="st2" d="M136.9,57.1c0.5-0.7,1.2-1,2.3-1c1,0,1.8,0.3,2.3,1c0.5,0.7,0.7,1.6,0.7,2.9c0,1.2-0.2,2.2-0.7,2.9
						c-0.5,0.7-1.2,1-2.3,1c-1,0-1.8-0.3-2.3-1c-0.5-0.7-0.7-1.6-0.7-2.9C136.2,58.7,136.4,57.8,136.9,57.1z M140.1,58.3
						c-0.1-0.4-0.5-0.6-1-0.6c-0.5,0-0.8,0.2-1,0.6c-0.1,0.4-0.2,0.9-0.2,1.6c0,0.5,0,0.9,0.1,1.2s0.2,0.6,0.3,0.8
						c0.2,0.2,0.4,0.3,0.8,0.3s0.6-0.1,0.8-0.3c0.2-0.2,0.3-0.4,0.3-0.8c0-0.3,0.1-0.7,0.1-1.2C140.3,59.2,140.2,58.7,140.1,58.3z"
          />
          <path class="st2" d="M144.5,57.1c0.5-0.7,1.2-1,2.3-1c1,0,1.8,0.3,2.3,1c0.5,0.7,0.7,1.6,0.7,2.9c0,1.2-0.2,2.2-0.7,2.9
						c-0.5,0.7-1.2,1-2.3,1c-1,0-1.8-0.3-2.3-1c-0.5-0.7-0.7-1.6-0.7-2.9C143.8,58.7,144.1,57.8,144.5,57.1z M147.7,58.3
						c-0.1-0.4-0.5-0.6-1-0.6c-0.5,0-0.8,0.2-1,0.6c-0.1,0.4-0.2,0.9-0.2,1.6c0,0.5,0,0.9,0.1,1.2c0,0.3,0.2,0.6,0.3,0.8
						c0.2,0.2,0.4,0.3,0.8,0.3c0.3,0,0.6-0.1,0.8-0.3c0.2-0.2,0.3-0.4,0.3-0.8c0-0.3,0.1-0.7,0.1-1.2
						C148,59.2,147.9,58.7,147.7,58.3z"/>
          <path class="st2" d="M154.4,62.4c0.4,0,0.6-0.1,0.8-0.5c0.1-0.3,0.2-0.9,0.2-1.6c-0.1,0.2-0.4,0.4-0.6,0.5
						c-0.3,0.1-0.6,0.2-0.9,0.2c-0.4,0-0.9-0.1-1.2-0.3s-0.6-0.5-0.8-0.8c-0.2-0.4-0.3-0.8-0.3-1.4c0-0.5,0.1-1,0.3-1.4
						c0.2-0.4,0.5-0.7,0.9-0.9s0.9-0.3,1.4-0.3c1,0,1.7,0.3,2.2,1s0.6,1.6,0.6,2.9c0,0.9-0.1,1.6-0.2,2.3c-0.1,0.6-0.4,1.1-0.8,1.4
						c-0.4,0.3-0.9,0.5-1.6,0.5c-0.5,0-1-0.1-1.4-0.3c-0.4-0.2-0.7-0.5-0.9-0.8c-0.2-0.3-0.3-0.7-0.3-1.1h1.6
						C153.5,62.2,153.9,62.4,154.4,62.4z M155,59.3c0.2-0.2,0.2-0.4,0.2-0.7c0-0.3-0.1-0.6-0.3-0.8c-0.2-0.2-0.4-0.3-0.7-0.3
						s-0.5,0.1-0.7,0.3c-0.2,0.2-0.3,0.4-0.3,0.8c0,0.3,0.1,0.5,0.3,0.7c0.2,0.2,0.4,0.3,0.8,0.3C154.6,59.6,154.8,59.5,155,59.3z"
          />
          <path class="st2" d="M159,63.7c-0.2-0.2-0.3-0.4-0.3-0.7c0-0.3,0.1-0.5,0.3-0.7c0.2-0.2,0.4-0.3,0.8-0.3c0.3,0,0.6,0.1,0.8,0.3
						c0.2,0.2,0.3,0.4,0.3,0.7s-0.1,0.5-0.3,0.7c-0.2,0.2-0.4,0.3-0.8,0.3C159.4,64,159.2,63.9,159,63.7z"/>
				</g>
			</g>
		</g>
    <rect x="207.9" class="st2" width="1.1" height="64"/>
    <g>
			<path class="st2" d="M223.7,18.9h3V20h-4.5v-8.9h1.4L223.7,18.9L223.7,18.9z"/>
      <path class="st2" d="M229.3,11.2v8.9h-1.4v-8.9H229.3z"/>
      <path class="st2" d="M231.4,13.3c0.4-0.7,1-1.2,1.6-1.6c0.7-0.4,1.4-0.6,2.3-0.6c0.9,0,1.8,0.2,2.5,0.7c0.7,0.5,1.3,1.1,1.6,2
				h-1.7c-0.2-0.5-0.5-0.8-1-1c-0.4-0.2-0.9-0.3-1.4-0.3c-0.6,0-1.1,0.1-1.6,0.4c-0.5,0.3-0.8,0.7-1.1,1.1c-0.3,0.5-0.4,1.1-0.4,1.7
				c0,0.7,0.1,1.2,0.4,1.7c0.3,0.5,0.6,0.9,1.1,1.1c0.5,0.3,1,0.4,1.6,0.4c0.5,0,1-0.1,1.4-0.3c0.4-0.2,0.7-0.6,1-1h1.7
				c-0.3,0.9-0.9,1.5-1.6,2c-0.7,0.5-1.6,0.7-2.5,0.7c-0.8,0-1.6-0.2-2.3-0.6c-0.7-0.4-1.2-0.9-1.6-1.6c-0.4-0.7-0.6-1.5-0.6-2.3
				C230.8,14.7,231,13.9,231.4,13.3z"/>
      <path class="st2" d="M242.6,12.3v2.6h3.1v1.2h-3.1v2.7h3.5v1.2h-4.9v-8.9h4.9v1.2L242.6,12.3L242.6,12.3z"/>
      <path class="st2" d="M255.1,20.1h-1.4l-4.4-6.6v6.6h-1.4v-8.9h1.4l4.4,6.6v-6.6h1.4V20.1z"/>
      <path class="st2" d="M257.1,13.3c0.4-0.7,1-1.2,1.6-1.6c0.7-0.4,1.4-0.6,2.3-0.6c0.9,0,1.8,0.2,2.5,0.7c0.7,0.5,1.3,1.1,1.6,2
				h-1.7c-0.2-0.5-0.5-0.8-1-1c-0.4-0.2-0.9-0.3-1.4-0.3c-0.6,0-1.1,0.1-1.6,0.4c-0.5,0.3-0.8,0.7-1.1,1.1c-0.3,0.5-0.4,1.1-0.4,1.7
				c0,0.7,0.1,1.2,0.4,1.7c0.3,0.5,0.6,0.9,1.1,1.1c0.5,0.3,1,0.4,1.6,0.4c0.5,0,1-0.1,1.4-0.3c0.4-0.2,0.7-0.6,1-1h1.7
				c-0.3,0.9-0.9,1.5-1.6,2c-0.7,0.5-1.6,0.7-2.5,0.7c-0.8,0-1.6-0.2-2.3-0.6s-1.2-0.9-1.6-1.6c-0.4-0.7-0.6-1.5-0.6-2.3
				C256.5,14.7,256.7,13.9,257.1,13.3z"/>
      <path class="st2" d="M272.2,18.2h-3.7l-0.6,1.8h-1.5l3.2-8.9h1.7l3.2,8.9h-1.5L272.2,18.2z M271.8,17l-1.4-4.1l-1.4,4.1H271.8z"
      />
      <path class="st2" d="M280.8,19.5c-0.7-0.4-1.2-0.9-1.7-1.6c-0.4-0.7-0.6-1.5-0.6-2.4c0-0.9,0.2-1.7,0.6-2.4
				c0.4-0.7,1-1.2,1.7-1.6c0.7-0.4,1.5-0.6,2.3-0.6s1.6,0.2,2.3,0.6c0.7,0.4,1.2,0.9,1.7,1.6c0.4,0.7,0.6,1.5,0.6,2.4
				c0,0.9-0.2,1.7-0.6,2.4c-0.4,0.7-1,1.2-1.7,1.6c-0.7,0.4-1.5,0.6-2.3,0.6S281.5,19.9,280.8,19.5z M284.8,17.4
				c0.4-0.5,0.7-1.1,0.7-1.9c0-0.8-0.2-1.4-0.7-1.9c-0.4-0.5-1-0.7-1.7-0.7c-0.7,0-1.3,0.2-1.7,0.7c-0.4,0.5-0.7,1.1-0.7,1.9
				c0,0.8,0.2,1.4,0.7,1.9c0.4,0.5,1,0.7,1.7,0.7C283.8,18.2,284.4,17.9,284.8,17.4z"/>
      <path class="st2" d="M293.5,20.1l-1.9-3.4h-0.5v3.4H289v-9h3.6c0.7,0,1.3,0.1,1.8,0.4c0.5,0.2,0.9,0.6,1.1,1
				c0.2,0.4,0.4,0.9,0.4,1.4c0,0.6-0.2,1.1-0.5,1.6c-0.3,0.5-0.8,0.8-1.5,1l2.1,3.5L293.5,20.1L293.5,20.1z M291.1,15.1h1.4
				c0.4,0,0.7-0.1,0.9-0.3s0.3-0.5,0.3-0.8c0-0.3-0.1-0.6-0.3-0.8s-0.5-0.3-0.9-0.3h-1.4V15.1z"/>
      <path class="st2" d="M303.2,13.9c-0.2-0.3-0.4-0.5-0.7-0.7c-0.3-0.2-0.7-0.2-1-0.2c-0.7,0-1.3,0.2-1.7,0.7
				c-0.4,0.5-0.6,1.1-0.6,1.9c0,0.8,0.2,1.5,0.7,1.9c0.5,0.5,1,0.7,1.9,0.7c0.5,0,1-0.2,1.4-0.4c0.4-0.3,0.6-0.7,0.8-1.2h-2.8V15
				h4.7v2c-0.2,0.5-0.4,1-0.8,1.5c-0.4,0.5-0.9,0.9-1.5,1.1c-0.6,0.3-1.3,0.4-2,0.4c-0.9,0-1.7-0.2-2.4-0.6s-1.2-0.9-1.6-1.6
				c-0.4-0.7-0.6-1.5-0.6-2.4s0.2-1.7,0.6-2.4c0.4-0.7,0.9-1.2,1.6-1.6c0.7-0.4,1.5-0.6,2.4-0.6c1.1,0,2,0.3,2.7,0.8
				c0.7,0.5,1.2,1.2,1.5,2.2L303.2,13.9L303.2,13.9z"/>
      <path class="st2" d="M312.5,18.5h-3.3l-0.5,1.6h-2.3l3.3-9h2.5l3.3,9h-2.3L312.5,18.5z M312,16.8l-1.1-3.3l-1.1,3.3H312z"/>
      <path class="st2" d="M324.4,20.1h-2.2l-3.6-5.5v5.5h-2.2v-9h2.2l3.6,5.5v-5.5h2.2V20.1z"/>
      <path class="st2" d="M328.1,11.1v9H326v-9H328.1z"/>
      <path class="st2" d="M332.1,18.3h3.8v1.8h-6.3v-1.7l3.8-5.5h-3.8v-1.8h6.3v1.7L332.1,18.3z"/>
      <path class="st2" d="M342.9,18.5h-3.3l-0.5,1.6h-2.3l3.3-9h2.5l3.3,9h-2.3L342.9,18.5z M342.3,16.8l-1.1-3.3l-1.1,3.3H342.3z"/>
      <path class="st2" d="M353.2,11.1v1.7h-2.4v7.2h-2.2v-7.2h-2.4v-1.7H353.2z"/>
      <path class="st2" d="M356.2,19.5c-0.7-0.4-1.2-0.9-1.7-1.6s-0.6-1.5-0.6-2.4c0-0.9,0.2-1.7,0.6-2.4c0.4-0.7,1-1.2,1.7-1.6
				c0.7-0.4,1.5-0.6,2.3-0.6c0.9,0,1.6,0.2,2.3,0.6c0.7,0.4,1.2,0.9,1.7,1.6c0.4,0.7,0.6,1.5,0.6,2.4c0,0.9-0.2,1.7-0.6,2.4
				c-0.4,0.7-1,1.2-1.7,1.6c-0.7,0.4-1.5,0.6-2.3,0.6C357.7,20.1,356.9,19.9,356.2,19.5z M360.2,17.4c0.4-0.5,0.7-1.1,0.7-1.9
				c0-0.8-0.2-1.4-0.7-1.9c-0.4-0.5-1-0.7-1.7-0.7c-0.7,0-1.3,0.2-1.7,0.7c-0.5,0.5-0.7,1.1-0.7,1.9c0,0.8,0.2,1.4,0.7,1.9
				c0.4,0.5,1,0.7,1.7,0.7C359.2,18.2,359.8,17.9,360.2,17.4z"/>
      <path class="st2" d="M368.9,20.1l-1.9-3.4h-0.5v3.4h-2.2v-9h3.6c0.7,0,1.3,0.1,1.8,0.4c0.5,0.2,0.9,0.6,1.1,1
				c0.2,0.4,0.4,0.9,0.4,1.4c0,0.6-0.2,1.1-0.5,1.6c-0.3,0.5-0.8,0.8-1.5,1l2.1,3.5L368.9,20.1L368.9,20.1z M366.5,15.1h1.4
				c0.4,0,0.7-0.1,0.9-0.3s0.3-0.5,0.3-0.8c0-0.3-0.1-0.6-0.3-0.8s-0.5-0.3-0.9-0.3h-1.4V15.1z"/>
      <path class="st2" d="M227.9,26.5v1.2h-2.4v7.7h-1.4v-7.7h-2.4v-1.2H227.9z"/>
      <path class="st2" d="M230.9,26.5v5.7c0,0.7,0.2,1.2,0.5,1.5c0.3,0.3,0.9,0.5,1.5,0.5c0.6,0,1.1-0.2,1.5-0.5
				c0.3-0.3,0.5-0.9,0.5-1.5v-5.7h1.4v5.6c0,0.7-0.2,1.3-0.5,1.8c-0.3,0.5-0.7,0.9-1.3,1.1c-0.5,0.2-1.1,0.4-1.7,0.4
				c-0.6,0-1.2-0.1-1.7-0.4c-0.5-0.2-0.9-0.6-1.2-1.1c-0.3-0.5-0.5-1.1-0.5-1.8v-5.6H230.9z"/>
      <path class="st2" d="M242.8,35.3l-2.1-3.5h-1.1v3.5h-1.4v-8.9h3.1c0.7,0,1.2,0.1,1.7,0.3c0.5,0.2,0.8,0.5,1,1
				c0.2,0.4,0.3,0.9,0.3,1.4c0,0.6-0.2,1.1-0.5,1.6c-0.3,0.5-0.9,0.8-1.6,1l2.2,3.7L242.8,35.3L242.8,35.3z M239.7,30.6h1.6
				c0.5,0,1-0.2,1.2-0.4c0.3-0.3,0.4-0.6,0.4-1.1c0-0.5-0.2-0.8-0.4-1.1c-0.3-0.3-0.7-0.4-1.2-0.4h-1.6V30.6z"/>
      <path class="st2" d="M247.7,26.5v8.9h-1.4v-8.9H247.7z"/>
      <path class="st2" d="M250.9,35.1c-0.5-0.2-0.9-0.5-1.1-0.9c-0.3-0.4-0.4-0.8-0.4-1.4h1.6c0,0.4,0.2,0.7,0.5,0.9
				c0.3,0.2,0.7,0.4,1.1,0.4c0.5,0,0.9-0.1,1.2-0.3c0.3-0.2,0.4-0.5,0.4-0.9c0-0.3-0.1-0.5-0.3-0.7c-0.2-0.2-0.4-0.3-0.7-0.4
				c-0.3-0.1-0.6-0.2-1.1-0.3c-0.6-0.2-1-0.3-1.4-0.5c-0.3-0.2-0.7-0.4-0.9-0.7c-0.3-0.3-0.4-0.8-0.4-1.3c0-0.5,0.1-1,0.4-1.4
				c0.3-0.4,0.6-0.7,1.1-0.9c0.5-0.2,1-0.3,1.6-0.3c0.9,0,1.6,0.2,2.1,0.7c0.5,0.4,0.9,1,0.9,1.8h-1.6c0-0.3-0.2-0.6-0.5-0.8
				c-0.3-0.2-0.7-0.3-1.1-0.3c-0.4,0-0.8,0.1-1,0.3c-0.3,0.2-0.4,0.5-0.4,0.9c0,0.3,0.1,0.5,0.2,0.7c0.2,0.2,0.4,0.3,0.6,0.4
				c0.3,0.1,0.6,0.2,1,0.3c0.6,0.2,1,0.3,1.4,0.5c0.4,0.2,0.7,0.4,0.9,0.7c0.3,0.3,0.4,0.8,0.4,1.4c0,0.5-0.1,0.9-0.3,1.3
				c-0.2,0.4-0.6,0.7-1,1c-0.5,0.2-1,0.3-1.6,0.3C252,35.5,251.5,35.3,250.9,35.1z"/>
      <path class="st2" d="M263.1,26.5v1.2h-2.4v7.7h-1.4v-7.7h-2.4v-1.2H263.1z"/>
      <path class="st2" d="M266,26.5v8.9h-1.4v-8.9H266z"/>
      <path class="st2" d="M268.1,28.5c0.4-0.7,1-1.2,1.6-1.6c0.7-0.4,1.4-0.6,2.3-0.6c0.9,0,1.8,0.2,2.5,0.7c0.7,0.5,1.3,1.1,1.6,2
				h-1.7c-0.2-0.5-0.5-0.8-1-1c-0.4-0.2-0.9-0.3-1.4-0.3c-0.6,0-1.1,0.1-1.6,0.4c-0.5,0.3-0.8,0.7-1.1,1.1c-0.3,0.5-0.4,1.1-0.4,1.7
				c0,0.7,0.1,1.2,0.4,1.7c0.3,0.5,0.6,0.9,1.1,1.1c0.5,0.3,1,0.4,1.6,0.4c0.5,0,1-0.1,1.4-0.3c0.4-0.2,0.7-0.6,1-1h1.7
				c-0.3,0.9-0.9,1.5-1.6,2c-0.7,0.5-1.6,0.7-2.5,0.7c-0.8,0-1.6-0.2-2.3-0.6c-0.7-0.4-1.2-0.9-1.6-1.6c-0.4-0.7-0.6-1.5-0.6-2.3
				C267.4,30,267.6,29.2,268.1,28.5z M273.8,24.8l-1.8,1l-1.8-1v-1.1l1.8,1.1l1.8-1.1V24.8z"/>
      <path class="st2" d="M282.7,35.3l-3.4-4v4h-1.4v-8.9h1.4v4l3.5-4h1.8l-3.8,4.4l3.9,4.4L282.7,35.3L282.7,35.3z"/>
      <path class="st2" d="M287.3,26.5v8.9h-1.4v-8.9H287.3z"/>
      <path class="st2" d="M296.3,26.5v8.9h-1.4v-3.9h-4.2v3.9h-1.4v-8.9h1.4v3.8h4.2v-3.8H296.3z"/>
      <path class="st2" d="M307.4,30.4c-0.2,0.4-0.5,0.7-1,1c-0.5,0.2-1.1,0.4-1.8,0.4H303v3.6h-1.4v-8.9h3.1c0.7,0,1.2,0.1,1.7,0.3
				c0.5,0.2,0.8,0.5,1,0.9c0.2,0.4,0.3,0.9,0.3,1.4C307.7,29.6,307.6,30,307.4,30.4z M305.8,30.2c0.3-0.2,0.4-0.6,0.4-1
				c0-1-0.5-1.4-1.6-1.4H303v2.9h1.6C305.1,30.6,305.6,30.4,305.8,30.2z"/>
      <path class="st2" d="M310.6,26.5v5.7c0,0.7,0.2,1.2,0.5,1.5c0.3,0.3,0.9,0.5,1.5,0.5s1.1-0.2,1.5-0.5c0.3-0.3,0.5-0.9,0.5-1.5
				v-5.7h1.4v5.6c0,0.7-0.2,1.3-0.5,1.8c-0.3,0.5-0.7,0.9-1.3,1.1s-1.1,0.4-1.7,0.4c-0.6,0-1.2-0.1-1.7-0.4
				c-0.5-0.2-0.9-0.6-1.2-1.1c-0.3-0.5-0.5-1.1-0.5-1.8v-5.6H310.6z"/>
      <path class="st2" d="M323.6,26.5v1.2h-2.4v7.7h-1.4v-7.7h-2.4v-1.2H323.6z"/>
      <path class="st2" d="M326.9,34.9c-0.7-0.4-1.2-0.9-1.6-1.6c-0.4-0.7-0.6-1.5-0.6-2.3s0.2-1.6,0.6-2.3c0.4-0.7,1-1.2,1.6-1.6
				c0.7-0.4,1.4-0.6,2.3-0.6c0.8,0,1.6,0.2,2.3,0.6c0.7,0.4,1.2,0.9,1.6,1.6c0.4,0.7,0.6,1.5,0.6,2.3s-0.2,1.6-0.6,2.3
				c-0.4,0.7-0.9,1.2-1.6,1.6s-1.5,0.6-2.3,0.6C328.3,35.5,327.6,35.3,326.9,34.9z M330.7,33.8c0.5-0.3,0.8-0.7,1.1-1.2
				s0.4-1.1,0.4-1.7c0-0.7-0.1-1.2-0.4-1.7c-0.3-0.5-0.6-0.9-1.1-1.1c-0.5-0.3-1-0.4-1.6-0.4s-1.1,0.1-1.6,0.4
				c-0.5,0.3-0.8,0.7-1.1,1.1c-0.3,0.5-0.4,1.1-0.4,1.7c0,0.7,0.1,1.2,0.4,1.7c0.3,0.5,0.6,0.9,1.1,1.2c0.5,0.3,1,0.4,1.6,0.4
				S330.3,34.1,330.7,33.8z"/>
      <path class="st2" d="M342.8,26.5l-3.3,8.9h-1.7l-3.3-8.9h1.6l2.6,7.4l2.6-7.4H342.8z"/>
      <path class="st2" d="M349.3,33.6h-3.7l-0.6,1.8h-1.5l3.2-8.9h1.7l3.2,8.9H350L349.3,33.6z M348.9,32.3l-1.4-4.1l-1.4,4.1H348.9z"
      />
      <path class="st2" d="M360.1,35.3h-1.4l-4.4-6.6v6.6h-1.4v-8.9h1.4l4.4,6.6v-6.6h1.4V35.3z"/>
      <path class="st2" d="M366.9,26.5v6.4c0,0.8-0.2,1.4-0.7,1.9c-0.5,0.5-1.1,0.7-1.9,0.7s-1.4-0.2-1.9-0.7c-0.5-0.5-0.7-1.1-0.7-1.9
				h1.5c0,0.4,0.1,0.7,0.3,0.9c0.2,0.2,0.5,0.3,0.9,0.3s0.7-0.1,0.9-0.3c0.2-0.2,0.3-0.5,0.3-0.9v-6.4H366.9z"/>
      <path class="st2" d="M374.6,33.6h-3.7l-0.6,1.8h-1.5l3.2-8.9h1.7l3.2,8.9h-1.5L374.6,33.6z M374.2,32.3l-1.4-4.1l-1.4,4.1H374.2z
				"/>
      <path class="st2" d="M224,50.2c-0.7-0.4-1.2-0.9-1.7-1.6c-0.4-0.7-0.6-1.5-0.6-2.4c0-0.9,0.2-1.7,0.6-2.4c0.4-0.7,1-1.2,1.7-1.6
				c0.7-0.4,1.5-0.6,2.3-0.6s1.6,0.2,2.3,0.6c0.7,0.4,1.2,0.9,1.7,1.6c0.4,0.7,0.6,1.5,0.6,2.4c0,0.9-0.2,1.7-0.6,2.4
				c-0.4,0.7-1,1.2-1.7,1.6s-1.5,0.6-2.3,0.6S224.7,50.5,224,50.2z M228,48.1c0.4-0.5,0.7-1.1,0.7-1.9c0-0.8-0.2-1.4-0.7-1.9
				c-0.4-0.5-1-0.7-1.7-0.7c-0.7,0-1.3,0.2-1.7,0.7c-0.4,0.5-0.7,1.1-0.7,1.9c0,0.8,0.2,1.4,0.7,1.9c0.4,0.5,1,0.7,1.7,0.7
				C227,48.8,227.6,48.5,228,48.1z"/>
      <path class="st2" d="M238.5,41.7v1.7h-2.4v7.2H234v-7.2h-2.4v-1.7H238.5z"/>
      <path class="st2" d="M246.1,46c-0.2,0.4-0.6,0.8-1.1,1c-0.5,0.3-1.1,0.4-1.8,0.4h-1.4v3.2h-2.2v-9h3.5c0.7,0,1.3,0.1,1.8,0.4
				c0.5,0.2,0.9,0.6,1.1,1c0.2,0.4,0.4,0.9,0.4,1.5C246.4,45.1,246.3,45.6,246.1,46z M243.9,45.4c0.2-0.2,0.3-0.5,0.3-0.8
				c0-0.3-0.1-0.6-0.3-0.8s-0.5-0.3-0.9-0.3h-1.2v2.2h1.2C243.4,45.7,243.7,45.6,243.9,45.4z"/>
      <path class="st2" d="M249.8,43.4v-2h3.5v9.3h-2.3v-7.3H249.8z"/>
      <path class="st2" d="M255.7,42.4c0.6-0.9,1.5-1.3,2.8-1.3c1.2,0,2.2,0.4,2.8,1.3c0.6,0.9,0.9,2,0.9,3.5s-0.3,2.6-0.9,3.5
				c-0.6,0.9-1.5,1.3-2.8,1.3c-1.2,0-2.2-0.4-2.8-1.3s-0.9-2-0.9-3.5S255.1,43.2,255.7,42.4z M259.6,43.9c-0.2-0.5-0.6-0.7-1.2-0.7
				s-1,0.2-1.2,0.7c-0.2,0.5-0.3,1.1-0.3,2c0,0.6,0,1,0.1,1.4c0.1,0.4,0.2,0.7,0.4,0.9c0.2,0.2,0.5,0.3,0.9,0.3
				c0.4,0,0.7-0.1,0.9-0.3c0.2-0.2,0.3-0.5,0.4-0.9s0.1-0.9,0.1-1.4C259.9,45,259.8,44.3,259.6,43.9z"/>
      <path class="st2" d="M266.7,49c0.5,0,0.8-0.2,1-0.6s0.3-1,0.3-1.9c-0.2,0.3-0.4,0.5-0.8,0.6c-0.3,0.2-0.7,0.2-1.1,0.2
				c-0.5,0-1-0.1-1.4-0.3c-0.4-0.2-0.8-0.5-1-1c-0.2-0.5-0.3-1-0.3-1.6c0-0.6,0.1-1.2,0.4-1.6c0.3-0.5,0.6-0.8,1.1-1.1
				c0.5-0.3,1-0.4,1.7-0.4c1.2,0,2.1,0.4,2.6,1.2s0.7,1.9,0.7,3.5c0,1.1-0.1,2-0.3,2.8c-0.2,0.7-0.5,1.3-1,1.6
				c-0.5,0.4-1.1,0.5-1.9,0.5c-0.7,0-1.2-0.1-1.7-0.4c-0.5-0.3-0.8-0.6-1-1c-0.2-0.4-0.4-0.9-0.4-1.4h2C265.6,48.6,266,49,266.7,49z
				 M267.4,45.1c0.2-0.2,0.3-0.5,0.3-0.9c0-0.4-0.1-0.7-0.3-0.9c-0.2-0.2-0.5-0.3-0.9-0.3s-0.7,0.1-0.9,0.3s-0.3,0.5-0.3,0.9
				c0,0.3,0.1,0.7,0.3,0.9c0.2,0.2,0.5,0.3,0.9,0.3C267,45.5,267.2,45.4,267.4,45.1z"/>
      <path class="st2" d="M276.1,38.6l-3.4,14.5h-2.1l3.4-14.5H276.1z"/>
      <path class="st2" d="M277.1,48.6c0.8-0.7,1.5-1.2,2-1.7c0.5-0.4,0.9-0.9,1.2-1.4c0.3-0.5,0.5-1,0.5-1.4c0-0.3-0.1-0.6-0.2-0.8
				s-0.4-0.3-0.7-0.3c-0.3,0-0.6,0.1-0.8,0.3c-0.2,0.2-0.3,0.6-0.3,1h-2.1c0-0.7,0.2-1.3,0.5-1.8c0.3-0.5,0.7-0.9,1.2-1.1
				c0.5-0.2,1-0.3,1.6-0.3c1,0,1.8,0.3,2.3,0.8c0.5,0.5,0.8,1.2,0.8,2c0,0.9-0.3,1.7-0.9,2.5c-0.6,0.8-1.4,1.6-2.4,2.3h3.5v1.8h-6.4
				v-1.6C277,48.7,277.2,48.6,277.1,48.6z"/>
      <path class="st2" d="M284.9,42.4c0.6-0.9,1.5-1.3,2.8-1.3c1.2,0,2.2,0.4,2.8,1.3c0.6,0.9,0.9,2,0.9,3.5s-0.3,2.6-0.9,3.5
				c-0.6,0.9-1.5,1.3-2.8,1.3c-1.2,0-2.2-0.4-2.8-1.3s-0.9-2-0.9-3.5C284.1,44.4,284.4,43.2,284.9,42.4z M288.8,43.9
				c-0.2-0.5-0.6-0.7-1.2-0.7s-1,0.2-1.2,0.7c-0.2,0.5-0.3,1.1-0.3,2c0,0.6,0,1,0.1,1.4s0.2,0.7,0.4,0.9c0.2,0.2,0.5,0.3,0.9,0.3
				c0.4,0,0.7-0.1,0.9-0.3c0.2-0.2,0.3-0.5,0.4-0.9s0.1-0.9,0.1-1.4C289.1,45,289,44.3,288.8,43.9z"/>
      <path class="st2" d="M292.7,48.6c0.8-0.7,1.5-1.2,2-1.7c0.5-0.4,0.9-0.9,1.2-1.4c0.3-0.5,0.5-1,0.5-1.4c0-0.3-0.1-0.6-0.2-0.8
				c-0.2-0.2-0.4-0.3-0.7-0.3c-0.3,0-0.6,0.1-0.8,0.3c-0.2,0.2-0.3,0.6-0.3,1h-2.1c0-0.7,0.2-1.3,0.5-1.8c0.3-0.5,0.7-0.9,1.2-1.1
				c0.5-0.2,1-0.3,1.6-0.3c1,0,1.8,0.3,2.3,0.8s0.8,1.2,0.8,2c0,0.9-0.3,1.7-0.9,2.5c-0.6,0.8-1.4,1.6-2.4,2.3h3.5v1.8h-6.4v-1.6
				C292.6,48.7,292.8,48.6,292.7,48.6z"/>
      <path class="st2" d="M299.5,43.4v-2h3.5v9.3h-2.3v-7.3H299.5z"/>
		</g>
	</g>
</g>
</svg>
