<svg width="50" height="50" viewBox="0 0 50 50" fill="none" xmlns="http://www.w3.org/2000/svg">
<path d="M25.0013 5.00004C24.7803 5.00004 24.5683 4.91224 24.412 4.75596C24.2558 4.59968 24.168 4.38772 24.168 4.16671V1.66671C24.168 1.44569 24.2558 1.23373 24.412 1.07745C24.5683 0.921171 24.7803 0.833374 25.0013 0.833374C25.2223 0.833374 25.4343 0.921171 25.5906 1.07745C25.7468 1.23373 25.8346 1.44569 25.8346 1.66671V4.16671C25.8346 4.38772 25.7468 4.59968 25.5906 4.75596C25.4343 4.91224 25.2223 5.00004 25.0013 5.00004Z" fill="#EAB82F"/>
<path d="M32.5 40.8334V41.6667C32.5 43.6558 31.7098 45.5635 30.3033 46.97C28.8968 48.3765 26.9891 49.1667 25 49.1667C23.0109 49.1667 21.1032 48.3765 19.6967 46.97C18.2902 45.5635 17.5 43.6558 17.5 41.6667V40.8334H32.5Z" fill="#F9D438"/>
<path d="M40.8346 34.1667L45.0921 37.005C45.3205 37.1572 45.5077 37.3634 45.6373 37.6053C45.7668 37.8472 45.8346 38.1173 45.8346 38.3917V40C45.8346 40.4421 45.659 40.866 45.3465 41.1786C45.0339 41.4911 44.61 41.6667 44.168 41.6667H5.83464C5.39261 41.6667 4.96868 41.4911 4.65612 41.1786C4.34356 40.866 4.16797 40.4421 4.16797 40V38.3917C4.16802 38.1173 4.23582 37.8472 4.36534 37.6053C4.49487 37.3634 4.68212 37.1572 4.91047 37.005L9.16797 34.1667L10.0013 33.3334H40.0013L40.8346 34.1667Z" fill="#EAB82F"/>
<path d="M25.0013 3.33337C29.2006 3.33337 33.2278 5.00152 36.1972 7.97085C39.1665 10.9402 40.8346 14.9674 40.8346 19.1667V34.1667H9.16797V19.1667C9.16797 14.9674 10.8361 10.9402 13.8054 7.97085C16.7748 5.00152 20.802 3.33337 25.0013 3.33337Z" fill="#F9D438"/>
</svg>
