<svg width="512" height="512" viewBox="0 0 512 512" fill="none" xmlns="http://www.w3.org/2000/svg">
<path d="M498.771 99.0722L387.667 43.6055C386.525 43.0355 385.274 42.7155 383.998 42.6668C382.7 42.582 381.404 42.8472 380.243 43.4348L259.582 99.7548C258.471 100.316 257.243 100.608 255.998 100.608C254.753 100.608 253.526 100.316 252.414 99.7548L131.753 43.4348C130.593 42.8472 129.296 42.582 127.998 42.6668C126.722 42.7155 125.471 43.0355 124.329 43.6055L13.2248 99.0722C11.8045 99.7878 10.6125 100.886 9.78325 102.243C8.95396 103.6 8.52039 105.162 8.53146 106.752V456.448C8.53586 457.903 8.91204 459.332 9.62426 460.601C10.3365 461.869 11.3611 462.934 12.6009 463.695C13.8406 464.456 15.2543 464.887 16.7076 464.948C18.161 465.009 19.6058 464.697 20.9048 464.043L124.329 412.331C125.46 411.732 126.718 411.41 127.998 411.392C129.299 411.379 130.585 411.672 131.753 412.246L252.414 468.566C253.541 469.072 254.763 469.334 255.998 469.334C257.234 469.334 258.455 469.072 259.582 468.566L380.243 412.246C381.411 411.672 382.697 411.379 383.998 411.392C385.278 411.41 386.536 411.732 387.667 412.331L491.091 464.043C492.391 464.697 493.835 465.009 495.289 464.948C496.742 464.887 498.156 464.456 499.395 463.695C500.635 462.934 501.66 461.869 502.372 460.601C503.084 459.332 503.46 457.903 503.465 456.448V106.752C503.476 105.162 503.042 103.6 502.213 102.243C501.384 100.886 500.192 99.7878 498.771 99.0722Z" fill="#334973"/>
<path d="M256 100.608V469.334C254.765 469.325 253.546 469.064 252.416 468.566L131.755 412.246C130.587 411.672 129.301 411.379 128 411.392V42.6668C129.298 42.582 130.594 42.8472 131.755 43.4348L252.416 99.7548C253.527 100.318 254.755 100.611 256 100.608Z" fill="#243756"/>
<path d="M503.467 106.752V456.448C503.462 457.903 503.086 459.332 502.374 460.601C501.662 461.869 500.637 462.934 499.397 463.695C498.158 464.456 496.744 464.888 495.291 464.948C493.837 465.009 492.392 464.698 491.093 464.043L387.669 412.331C386.538 411.732 385.28 411.41 384 411.392V42.667C385.276 42.7156 386.527 43.0356 387.669 43.6057L498.773 99.0723C500.194 99.7879 501.386 100.886 502.215 102.243C503.044 103.6 503.478 105.162 503.467 106.752Z" fill="#243756"/>
</svg>
