<svg width="512" height="512" viewBox="0 0 512 512" fill="none" xmlns="http://www.w3.org/2000/svg">
<path d="M94.258 196.394C103.645 338.969 225.842 470.118 257.168 500.522C259.12 502.418 261.734 503.478 264.455 503.478C267.176 503.478 269.79 502.418 271.743 500.522C304.357 468.838 435.199 328.593 435.199 179.2C435.2 134.148 417.388 90.9237 385.647 58.9526C353.906 26.9814 310.811 8.85745 265.761 8.53308C165.17 7.78214 87.6703 96.068 94.258 196.394Z" fill="#F74850"/>
<path d="M264.535 307.2C335.228 307.2 392.535 249.893 392.535 179.2C392.535 108.508 335.228 51.2002 264.535 51.2002C193.843 51.2002 136.535 108.508 136.535 179.2C136.535 249.893 193.843 307.2 264.535 307.2Z" fill="#DFEDEF"/>
</svg>
