<svg width="50" height="50" viewBox="0 0 50 50" fill="none" xmlns="http://www.w3.org/2000/svg">
<g clip-path="url(#clip0_1043_3900)">
<path d="M10 45.2917V37.1417C9.99969 35.2844 10.5604 33.4704 11.6088 31.9373C12.6571 30.4041 14.1441 29.2235 15.875 28.55L25 25L34.125 28.55C35.8559 29.2235 37.3429 30.4041 38.3912 31.9373C39.4396 33.4704 40.0003 35.2844 40 37.1417V45.2917H10Z" fill="#DFEDEF"/>
<path d="M40 45.2916V49.1666H10V45.2916C10.0019 43.4506 10.5157 41.6463 11.484 40.0805C12.4523 38.5147 13.837 37.249 15.4833 36.425L25 31.6666L34.5167 36.425C36.163 37.249 37.5477 38.5147 38.516 40.0805C39.4843 41.6463 39.9981 43.4506 40 45.2916Z" fill="#CC9D27"/>
<path d="M40 9.99996V12.8583C40.0003 14.7156 39.4396 16.5296 38.3912 18.0627C37.3429 19.5958 35.8559 20.7765 34.125 21.45L25 25L15.875 21.45C14.1441 20.7765 12.6571 19.5958 11.6088 18.0627C10.5604 16.5296 9.99969 14.7156 10 12.8583V9.99996L10.8333 9.16663H39.1667L40 9.99996Z" fill="#CC9D27"/>
<path d="M10 0.833374H40V10H10V0.833374Z" fill="#DFEDEF"/>
<path d="M25.0013 34.1666C24.7803 34.1666 24.5683 34.0788 24.412 33.9225C24.2558 33.7663 24.168 33.5543 24.168 33.3333V22.5C24.168 22.2789 24.2558 22.067 24.412 21.9107C24.5683 21.7544 24.7803 21.6666 25.0013 21.6666C25.2223 21.6666 25.4343 21.7544 25.5906 21.9107C25.7468 22.067 25.8346 22.2789 25.8346 22.5V33.3333C25.8346 33.5543 25.7468 33.7663 25.5906 33.9225C25.4343 34.0788 25.2223 34.1666 25.0013 34.1666Z" fill="#CC9D27"/>
<path d="M44.1667 1.66667H5.83333C5.61232 1.66667 5.40036 1.57887 5.24408 1.42259C5.0878 1.26631 5 1.05435 5 0.833333C5 0.61232 5.0878 0.400358 5.24408 0.244078C5.40036 0.0877974 5.61232 0 5.83333 0L44.1667 0C44.3877 0 44.5996 0.0877974 44.7559 0.244078C44.9122 0.400358 45 0.61232 45 0.833333C45 1.05435 44.9122 1.26631 44.7559 1.42259C44.5996 1.57887 44.3877 1.66667 44.1667 1.66667Z" fill="#334973"/>
<path d="M44.1667 50H5.83333C5.61232 50 5.40036 49.9122 5.24408 49.756C5.0878 49.5997 5 49.3877 5 49.1667C5 48.9457 5.0878 48.7337 5.24408 48.5775C5.40036 48.4212 5.61232 48.3334 5.83333 48.3334H44.1667C44.3877 48.3334 44.5996 48.4212 44.7559 48.5775C44.9122 48.7337 45 48.9457 45 49.1667C45 49.3877 44.9122 49.5997 44.7559 49.756C44.5996 49.9122 44.3877 50 44.1667 50Z" fill="#334973"/>
</g>
<defs>
<clipPath id="clip0_1043_3900">
<rect width="50" height="50" fill="white"/>
</clipPath>
</defs>
</svg>
