<svg width="512" height="512" viewBox="0 0 512 512" fill="none" xmlns="http://www.w3.org/2000/svg">
<g clip-path="url(#clip0_2371_2222)">
<path d="M162.135 145.066L179.202 153.6V358.4L162.135 366.933H25.6018C21.0796 366.92 16.7465 365.117 13.5488 361.919C10.3511 358.722 8.54866 354.389 8.53516 349.866V162.133C8.54866 157.611 10.3511 153.278 13.5488 150.08C16.7465 146.882 21.0796 145.08 25.6018 145.066H162.135Z" fill="#34B1C6"/>
<path d="M298.666 50.6031V461.398C298.668 462.892 298.247 464.357 297.45 465.622C296.653 466.886 295.514 467.899 294.165 468.542C292.816 469.185 291.312 469.433 289.828 469.256C288.344 469.079 286.941 468.484 285.781 467.542L162.133 366.934V145.067L285.781 44.4591C286.941 43.5165 288.344 42.9222 289.828 42.7451C291.312 42.568 292.816 42.8155 294.165 43.4588C295.514 44.1021 296.653 45.1148 297.45 46.3793C298.247 47.6439 298.668 49.1085 298.666 50.6031Z" fill="#64DAF9"/>
<path d="M366.932 315.733C365.311 315.733 363.723 315.27 362.355 314.4C360.987 313.529 359.895 312.287 359.208 310.819C358.52 309.351 358.265 307.717 358.472 306.108C358.68 304.5 359.341 302.985 360.379 301.739C370.193 288.505 375.491 272.467 375.491 255.991C375.491 239.516 370.193 223.478 360.379 210.244C358.933 208.502 358.238 206.256 358.448 204.001C358.657 201.746 359.754 199.667 361.497 198.221C363.239 196.775 365.485 196.08 367.74 196.29C369.995 196.499 372.074 197.596 373.52 199.339C385.868 215.648 392.551 235.544 392.551 256C392.551 276.456 385.868 296.352 373.52 312.661C372.716 313.627 371.709 314.403 370.57 314.934C369.431 315.465 368.189 315.738 366.932 315.733Z" fill="#334973"/>
<path d="M401.066 358.4C399.332 358.403 397.638 357.877 396.21 356.892C394.782 355.908 393.688 354.512 393.073 352.89C392.459 351.268 392.353 349.497 392.77 347.814C393.187 346.13 394.108 344.614 395.409 343.467C395.818 343.117 435.2 307.609 435.2 256C435.2 204.143 395.827 168.892 395.426 168.542C393.79 167.029 392.811 164.937 392.698 162.712C392.585 160.487 393.346 158.307 394.818 156.635C396.291 154.964 398.359 153.935 400.581 153.768C402.802 153.601 405.001 154.309 406.707 155.742C408.567 157.363 452.266 196.505 452.266 256C452.266 315.494 408.567 354.637 406.707 356.275C405.148 357.646 403.142 358.401 401.066 358.4Z" fill="#334973"/>
<path d="M435.198 409.6C433.45 409.602 431.744 409.068 430.31 408.069C428.875 407.071 427.782 405.656 427.178 404.016C426.574 402.376 426.488 400.59 426.932 398.9C427.376 397.209 428.328 395.696 429.66 394.564C430.317 394.018 494.931 337.92 494.931 256C494.931 173.858 430.325 117.99 429.677 117.436C428.022 115.951 427.012 113.88 426.862 111.662C426.711 109.444 427.432 107.255 428.871 105.561C430.309 103.867 432.353 102.8 434.565 102.589C436.778 102.378 438.986 103.039 440.719 104.431C443.629 106.905 511.998 166.05 511.998 256C511.998 345.95 443.629 405.094 440.719 407.569C439.181 408.884 437.222 409.605 435.198 409.6Z" fill="#334973"/>
</g>
<defs>
<clipPath id="clip0_2371_2222">
<rect width="512" height="512" fill="white"/>
</clipPath>
</defs>
</svg>
