<svg width="512" height="512" viewBox="0 0 512 512" fill="none" xmlns="http://www.w3.org/2000/svg">
<path d="M162.133 230.4L210.329 202.649C223.006 195.047 232.655 183.286 237.636 169.369L287.616 28.8937C290.186 21.7286 295.325 15.7732 302.037 12.1816C308.749 8.59011 316.555 7.61836 323.942 9.45473C330.964 11.2203 337.137 15.4094 341.371 21.283C345.605 27.1566 347.629 34.337 347.085 41.5571L335.035 171.033C334.787 174.253 335.207 177.489 336.269 180.538C337.331 183.588 339.011 186.385 341.205 188.754C343.399 191.124 346.059 193.014 349.018 194.307C351.977 195.599 355.171 196.267 358.4 196.266H453.922C460.591 196.262 467.193 197.603 473.332 200.211C479.47 202.819 485.019 206.64 489.646 211.444C494.272 216.248 497.881 221.937 500.256 228.169C502.631 234.402 503.723 241.049 503.466 247.714L495.607 451.413C495.017 465.416 489.04 478.65 478.923 488.35C468.807 498.05 455.334 503.466 441.318 503.466H247.466C234.461 503.466 221.576 500.984 209.502 496.153L162.133 477.866L145.066 469.333V230.4H162.133Z" fill="#64DAF9"/>
<path d="M145.068 196.267H25.6018C16.1762 196.267 8.53516 203.908 8.53516 213.333V486.4C8.53516 495.826 16.1762 503.467 25.6018 503.467H145.068C154.494 503.467 162.135 495.826 162.135 486.4V213.333C162.135 203.908 154.494 196.267 145.068 196.267Z" fill="#334973"/>
</svg>
