<svg width="35" height="35" viewBox="0 0 35 35" fill="none" xmlns="http://www.w3.org/2000/svg">
      <path d="M0 17.5C0 7.83502 7.83502 0 17.5 0C27.165 0 35 7.83502 35 17.5C35 27.165 27.165 35 17.5 35C7.83502 35 0 27.165 0 17.5Z" fill="black"></path>
      <path d="M15.8576 15.6409V14.9596C15.6242 14.9284 15.3869 14.9089 15.1418 14.9089C12.2205 14.9051 9.84375 17.2838 9.84375 20.2115C9.84375 22.0063 10.7384 23.5947 12.1077 24.5564C11.2247 23.6103 10.684 22.3372 10.684 20.9434C10.684 18.0586 12.9946 15.7071 15.8576 15.6409Z" fill="#25F4EE"></path>
      <path d="M15.9859 23.3651C17.2891 23.3651 18.3549 22.3257 18.4016 21.0331L18.4055 9.48193H20.5138C20.471 9.24444 20.4477 8.99917 20.4477 8.75H17.5691L17.5652 20.3012C17.5186 21.5937 16.4527 22.6332 15.1496 22.6332C14.745 22.6332 14.3638 22.532 14.0254 22.3529C14.4611 22.9641 15.1768 23.3651 15.9859 23.3651Z" fill="#25F4EE"></path>
      <path d="M24.4537 13.4024V12.7601C23.6486 12.7601 22.9017 12.5226 22.2715 12.1099C22.8316 12.7523 23.5902 13.2195 24.4537 13.4024Z" fill="#25F4EE"></path>
      <path d="M22.2719 12.1098C21.6573 11.4052 21.2877 10.4864 21.2877 9.48193H20.5176C20.7159 10.5798 21.3695 11.522 22.2719 12.1098Z" fill="#FE2C55"></path>
      <path d="M15.1461 17.786C13.8119 17.786 12.7266 18.8723 12.7266 20.2076C12.7266 21.1381 13.2556 21.9479 14.0258 22.3528C13.7379 21.9557 13.5668 21.469 13.5668 20.9395C13.5668 19.6042 14.6521 18.518 15.9863 18.518C16.2353 18.518 16.4765 18.5608 16.7021 18.6309V15.6876C16.4687 15.6565 16.2314 15.637 15.9863 15.637C15.9435 15.637 15.9046 15.6409 15.8618 15.6409V17.8989C15.6323 17.8288 15.3951 17.786 15.1461 17.786Z" fill="#FE2C55"></path>
      <path d="M24.4541 13.4023V15.6409C22.9603 15.6409 21.5755 15.1621 20.4474 14.3523V20.2116C20.4474 23.1354 18.0707 25.5181 15.1455 25.5181C14.0174 25.5181 12.9671 25.1599 12.1074 24.5564C13.076 25.5959 14.4569 26.25 15.9857 26.25C18.907 26.25 21.2877 23.8712 21.2877 20.9435V15.0842C22.4157 15.894 23.8005 16.3729 25.2943 16.3729V13.4919C25.0025 13.4919 24.7225 13.4607 24.4541 13.4023Z" fill="#FE2C55"></path>
      <path d="M20.4473 20.2116V14.3523C21.5754 15.1621 22.9602 15.641 24.454 15.641V13.4024C23.5904 13.2194 22.8319 12.7522 22.2717 12.1098C21.3692 11.522 20.7196 10.5798 20.5134 9.48193H18.4051L18.4012 21.0331C18.3546 22.3256 17.2887 23.3651 15.9856 23.3651C15.1765 23.3651 14.4646 22.9641 14.0212 22.3568C13.2509 21.948 12.7219 21.1421 12.7219 20.2116C12.7219 18.8763 13.8072 17.79 15.1415 17.79C15.3904 17.79 15.6316 17.8328 15.8572 17.9029V15.6449C12.9942 15.7072 10.6836 18.0587 10.6836 20.9435C10.6836 22.3373 11.2243 23.6065 12.1073 24.5565C12.967 25.1599 14.0173 25.5181 15.1453 25.5181C18.0667 25.5181 20.4473 23.1354 20.4473 20.2116Z" fill="white"></path>
    </svg>